<?xml version="1.0" standalone="no"?><!DOCTYPE svg PUBLIC "-//W3C//DTD SVG 1.1//EN" "http://www.w3.org/Graphics/SVG/1.1/DTD/svg11.dtd"><svg t="1631007482201" class="icon" viewBox="0 0 1024 1024" version="1.1" xmlns="http://www.w3.org/2000/svg" p-id="3534" width="128" height="128" xmlns:xlink="http://www.w3.org/1999/xlink"><defs><style type="text/css"></style></defs><path d="M300.373333 522.24a40.96 40.96 0 0 1-27.306666-10.513067l-68.266667-61.44a40.96 40.96 0 0 1 54.613333-60.893866l34.884267 31.402666 143.803733-192.7168a40.96 40.96 0 1 1 65.672534 49.015467l-170.666667 228.693333a40.96 40.96 0 0 1-28.808533 16.247467A39.799467 39.799467 0 0 1 300.373333 522.24zM237.192533 897.194667a40.96 40.96 0 0 1-34.133333-63.351467l447.146667-686.08a40.96 40.96 0 1 1 68.608 44.7488l-447.146667 686.08a40.96 40.96 0 0 1-34.474667 18.602667zM551.458133 897.160533a40.96 40.96 0 0 1-30.481066-68.266666l235.1104-261.768534a40.96 40.96 0 0 1 60.962133 54.613334l-235.1104 261.768533a40.96 40.96 0 0 1-30.481067 13.653333z" p-id="3535" data-spm-anchor-id="a313x.7781069.0.i10" class="selected"></path><path d="M786.568533 897.160533a40.96 40.96 0 0 1-30.481066-13.653333l-235.1104-261.768533a40.96 40.96 0 0 1 60.962133-54.613334l235.1104 261.768534a40.96 40.96 0 0 1-30.481067 68.266666z" p-id="3536" data-spm-anchor-id="a313x.7781069.0.i9" class="selected"></path></svg>
