<svg t="1686107328122" class="icon" viewBox="0 0 1024 1024" version="1.1" xmlns="http://www.w3.org/2000/svg" p-id="5803" width="200" height="200"><path d="M270.757519 812.244442l20.592113-26.655346-35.807396 72.758798c-4.690426 9.495252-0.800804 21.049715 8.694448 25.740141 1.144006 0.572003 2.288013 1.029606 3.546419 1.372807l63.377947 16.931293c6.520836 1.716009 13.499274-0.114401 18.3041-4.804826 21.736119-21.049715 37.752206-38.209809 48.048263-51.480282l20.592112-26.655346-35.921796 72.758798c-4.690426 9.495252-0.800804 21.049715 8.694447 25.740141 1.144006 0.572003 2.402413 1.029606 3.54642 1.372808l89.69009 24.024131c6.520836 1.716009 13.499274-0.114401 18.3041-4.804826 21.736119-21.049715 37.752206-38.209809 48.048263-51.480282l20.592113-26.655346-35.921797 72.758798c-4.690426 9.495252-0.800804 21.049715 8.694448 25.740141 1.144006 0.572003 2.402413 1.029606 3.66082 1.372808l76.534018 20.477712c6.520836 1.716009 13.499274-0.114401 18.3041-4.804827 21.736119-21.049715 37.752206-38.209809 48.048263-51.480281l20.706513-26.655346-35.921796 72.873198c-4.690426 9.495252-0.800804 21.049715 8.808848 25.740141 1.144006 0.572003 2.288013 1.029606 3.54642 1.372808l91.749301 24.824935 4.118423-0.228801c14.071277-0.800804 30.888169-5.376829 46.561054-13.613674 31.574573-16.702491 51.13708-45.874651 55.369903-83.054854 2.288013-19.676908 5.033628-40.955424 8.923249-67.381969 1.716009-11.897665 3.088817-21.278516 6.635236-44.387443 11.783264-77.792425 15.558485-107.193386 18.1897-141.856775l1.029605-13.156072 2.974417-3.088817 13.041671-1.487208c9.838454-0.915205 19.104904-5.148028 26.312144-11.897665 11.440063-10.868059 15.672886-26.884147 11.783264-44.845046L934.395549 415.503072c-3.203218-14.528879-12.012066-29.629762-24.596135-42.328231-12.355268-12.355268-27.45615-21.392917-42.328231-25.396939l-120.235058-32.146576-2.402413-4.118422 56.170707-209.353145c8.808848-32.94738-12.469668-67.61077-47.705061-77.106022L668.986097 2.631214c-35.235393-9.495252-71.042789 9.952854-79.851637 42.900235l-56.056306 209.353145-4.118423 2.402413-125.268685-33.519383c-14.872081-4.004022-32.489778-3.66082-49.306669 0.800804-17.274494 4.576025-32.375377 13.384873-42.442632 24.367333L186.215457 386.674115c-12.355268 13.499274-16.588091 29.515361-12.240867 44.616244s16.816892 26.769746 34.892191 32.375377l14.414479 4.576025 2.288012 4.118422-4.004022 14.64328c-22.422523 84.770864-56.056307 145.288795-90.948497 160.160876C80.280478 668.557256 53.28193 699.674226 47.447498 737.426433c-5.376829 34.66339 9.838454 71.27159 39.925818 97.126131l23.337728 8.808848 79.279634 21.278516c15.672886 4.232823 32.260976-0.228801 43.701039-11.783264 16.244889-16.130488 28.600156-29.629762 37.065802-40.612222z m585.1592-420.879902c14.986482 4.004022 31.803374 20.363311 34.777791 33.976986L927.41711 592.824042c1.372808 6.063233-2.516814 12.126466-8.694447 13.499274-1.716009 0.343202-3.546419 0.343202-5.376829-0.114401l-678.624512-181.896995c-6.063233-1.601609-9.609653-7.893643-8.008044-13.842475 0.457603-1.716009 1.372808-3.317618 2.516814-4.690426l115.430232-126.755893c9.380851-10.296056 32.032175-16.016088 47.133057-12.012066L541.772601 307.16568c12.126466 3.203218 24.481734-3.889621 27.684952-16.016088l61.890738-230.974863c3.203218-12.126466 15.672886-19.219305 27.684952-16.016088L740.82969 66.123562c12.126466 3.203218 19.219305 15.672886 16.016088 27.684951l-61.776338 231.089264c-3.203218 12.126466 3.889621 24.481734 16.016087 27.684951l144.831192 38.781812zM314.115356 708.826276c-35.692995 47.933862-68.525975 83.970059-98.498938 108.108592l-6.292035 5.033627-2.974416 0.686404-93.465311-25.51134-3.088817-3.432018c-13.842476-14.986482-20.592113-32.94738-18.075299-49.421071 3.432019-22.651324 23.452128-41.756228 56.513909-55.827505 33.633784-14.300078 63.492347-49.993073 87.974081-106.04938 11.325662-26.312144 20.706513-53.539493 28.028154-81.224444l4.118422-15.329684 4.118423-2.402413L873.420015 644.304324l2.516814 3.546419-0.800804 12.927271c-2.059211 32.489778-32.146576 243.444531-34.091387 259.918221-2.516814 21.621718-12.012066 37.180203-29.28656 47.133058-7.092839 4.004022-14.757681 6.978438-22.651324 8.580047l-5.376829 0.800804-64.064351-17.160094 11.897665-21.507317c8.808848-15.901687 24.024131-46.561055 45.760251-91.863703 5.376829-11.211261 0.572003-24.596135-10.524858-29.858563l-3.317618-1.601609c-9.724053-4.690426-21.392917-1.716009-27.913753 6.864038-35.692995 47.819462-68.525975 83.741258-98.384538 107.765389l-6.292034 5.033628-3.088817 0.572003-55.713105-14.872082 11.783265-21.507317c3.775221-6.864038 7.550441-13.842476 11.09686-20.820914 7.436041-14.300078 18.990504-37.981008 34.548989-70.928388 5.376829-11.211261 0.572003-24.596135-10.639258-30.087364l-3.203217-1.487209c-9.724053-4.690426-21.507318-1.83041-28.028154 6.864038-35.578595 47.705061-68.411574 83.626857-98.270137 107.650989l-6.292034 5.033627-2.974417 0.686404-55.369903-14.872081 11.783265-21.507318c3.432019-6.292034 7.092839-13.156072 11.096861-20.820914 7.436041-14.300078 19.104904-38.095408 34.89219-71.614792 5.262429-11.096861 0.572003-24.367333-10.524857-29.629762-0.114401 0-0.114401-0.114401-0.228801-0.1144l-3.54642-1.601609c-9.724053-4.461624-21.278516-1.601609-27.684951 6.978438-35.692995 47.819462-68.525975 83.741258-98.498939 107.87979l-6.292034 5.033628-2.974417 0.572003-34.663389-9.15205 11.783264-21.507318c3.775221-6.864038 7.436041-13.842476 11.096861-20.820914 7.436041-14.300078 18.990504-38.209809 34.892191-71.614791 5.262429-11.211261 0.457603-24.481734-10.639258-29.744163l-3.432019-1.601609c-9.609653-4.461624-21.164116-1.601609-27.684952 6.978438z" p-id="5804"></path></svg>
