<svg t="1647518584230" class="icon" viewBox="0 0 1024 1024" version="1.1" xmlns="http://www.w3.org/2000/svg" p-id="1761" width="128" height="128"><path d="M656.366504 745.293347c-5.135974 20.386306-31.17093 64.952314-72.607668 124.988666 11.359722 2.63706 22.199605 5.612834 33.219589 7.615445 20.076244 3.651157 40.301891 6.492878 60.373019 10.169617 6.574742 1.205455 9.925047-1.192152 13.433964-6.412037 40.395012-60.046584 72.950476-124.218116 100.262518-191.074803 10.68741-26.16287 19.823488-52.957119 29.664623-79.46382 0.9967-2.692319 1.985214-5.386684 3.176342-8.625448 21.643949 7.462972 42.786479 14.754029 64.936965 22.39301-3.971451 11.618619-7.559163 22.602787-11.468193 33.469276-33.217543 92.294033-74.603115 180.555216-129.695874 262.020622-4.575202 6.768147-9.754155 13.130042-14.273075 19.931958-10.372232 15.613606-24.885783 20.443611-43.083238 18.711154-70.13843-6.665817-138.095171-22.630417-203.946972-47.421033C366.551862 866.494757 263.411807 797.4748 181.660898 697.994088c-9.795087-11.919471-12.605086-25.124214-6.214539-39.120996 6.164397-13.503549 18.030655-19.634176 32.513508-19.824511 62.256926-0.825808 122.270764-13.300934 180.297342-35.240619 52.505841-19.850094 100.349499-47.342238 137.174196-90.851171 10.670014-12.609179 19.378349-26.881231 29.449729-41.040718 18.990516 10.69969 38.487569 21.684882 60.015885 33.816177-11.133571 16.112979-21.039175 32.221866-32.68747 46.952358-28.481681 36.014238-64.412009 63.385633-104.296391 85.558631-60.10389 33.412994-124.994806 52.664454-192.579063 63.60462-1.331321 0.215918-2.65241 0.496304-5.9055 1.111311 9.66308 8.861832 17.807574 17.125029 26.767644 24.3772 16.784268 13.58439 33.846876 26.852578 51.275827 39.59274 3.400446 2.487657 9.344832 3.544733 13.515828 2.602268 34.647101-7.825222 66.463738-21.686928 93.140307-46.388517-2.298346 12.126178-24.226774 42.948161-54.974056 77.261665 19.313881 9.625218 38.838563 18.053168 57.031924 28.746718 23.553439 13.84431 46.070268 10.076496 69.196988 0.080841 39.068807-16.883529 72.539106-42.126446 104.588033-69.53161C645.16744 755.25728 650.244063 750.679008 656.366504 745.293347z" p-id="1762"></path><path d="M909.529387 567.152111c-109.651352-48.781006-218.512712-97.211019-328.184531-146.001235 9.072633-21.050432 23.290449-37.069267 42.509163-48.406476 32.099069-18.935258 65.702398-21.055548 99.830683-6.203282 43.828204 19.075451 87.598081 38.317701 130.971937 58.401108 50.973952 23.602557 74.944899 76.694753 59.435671 129.401162C912.884808 558.446845 911.231145 562.418296 909.529387 567.152111z" p-id="1763"></path><path d="M860.838432 376.022049c-34.528398-15.376199-68.619844-30.5549-102.691847-45.771463-0.720408-0.322341-1.237177-1.104147-2.220574-2.01489 1.274016-2.577708 2.468215-5.166673 3.807722-7.677866 42.679032-80.046081 85.36932-160.084998 128.067794-240.122893 7.143701-13.394055 15.47239-17.447371 30.849612-15.20326 14.130835 2.060939 26.107611 8.118911 35.302017 19.165502 6.055926 7.2798 7.55814 15.208377 4.190439 24.474414-31.859615 87.676875-63.522756 175.425382-95.262644 263.145236C862.493118 373.095393 861.842295 374.077767 860.838432 376.022049z" p-id="1764"></path><path d="M340.020602 460.518488c-1.156336 47.65844-41.127699 86.435605-87.667665 85.045955-47.558156-1.419326-85.758176-41.085744-84.785012-88.041172 0.963954-46.604434 41.120536-85.515652 87.349417-84.643796C302.194088 373.772822 341.151355 413.891542 340.020602 460.518488z" p-id="1765"></path><path d="M116.018875 200.6376c28.565593 0.094144 51.687196 23.460318 51.42523 51.965535-0.258896 28.071336-23.364127 51.147914-51.420113 51.354622-28.161387 0.206708-51.93279-23.49818-51.930743-51.78441C64.095295 223.695758 87.425653 200.541409 116.018875 200.6376z" p-id="1766"></path><path d="M236.815055 269.441639c-0.005117-19.2269 15.311731-34.456766 34.525328-34.328853 19.014052 0.128937 34.626635 15.943111 34.30941 34.753525-0.311085 18.481933-15.838733 33.916461-34.288944 34.084283C252.499269 304.123532 236.822219 288.461831 236.815055 269.441639z" p-id="1767"></path></svg>
