<svg t="1630652479478" class="icon" viewBox="0 0 1024 1024" version="1.1" xmlns="http://www.w3.org/2000/svg" p-id="8999" width="200" height="200"><path d="M1007.422339 706.15686l-89.634925-49.008103-63.65935 34.612773 74.023988 40.434884-416.824792 226.74245L95.334198 732.580289l74.151947-40.370904-63.531392-34.484814-90.08278 49.008103a28.982599 28.982599 0 0 0-3.966713 49.391978l-0.191938 0.319896 483.747085 263.210621a33.269208 33.269208 0 0 0 32.117582-0.191937l480.100267-261.227265a29.046578 29.046578 0 0 0 11.580244-41.010697 30.326163 30.326163 0 0 0-11.836161-11.06841z m0-220.344525l-90.0188-49.200041-63.659351 34.612772L928.152052 511.851888l-416.824792 226.74245-415.929083-226.294595 74.535822-40.562843-63.595371-34.612772-90.466655 49.26402a29.046578 29.046578 0 0 0-3.902734 49.455958l-0.191938 0.319896 483.619126 263.146642a33.653084 33.653084 0 0 0 32.181562-0.191938l480.100267-261.227265a29.046578 29.046578 0 0 0 11.580244-41.010697 29.878308 29.878308 0 0 0-11.836161-11.068409zM513.118679 64.700933l415.033373 226.806429L511.391239 518.249813 95.398177 291.955217 513.118679 64.700933zM11.841281 315.307642l-0.255917 0.383876 483.811063 263.210621a33.653084 33.653084 0 0 0 32.181562-0.191938l480.100267-261.227265a29.046578 29.046578 0 0 0-0.319896-52.079106L529.11349 4.048607a33.269208 33.269208 0 0 0-33.461146 0.959688L15.935952 266.043622a28.982599 28.982599 0 0 0-4.094671 49.26402z" fill="#515151" p-id="9000" data-spm-anchor-id="a313x.7781069.0.i16" class="selected"></path></svg>
