<svg t="1632560037588" class="icon" viewBox="0 0 1024 1024" version="1.1" xmlns="http://www.w3.org/2000/svg" p-id="2542" width="200" height="200"><path d="M960.67925333 118.05582222l-54.73507555-54.73507555c-3.76263111-3.76149333-9.95214222-3.76149333-13.71363556 0l-191.14666667 191.26840888-66.38592-66.38592c-5.70368-5.70368-15.41347555-2.30513778-16.384 5.70481778l-28.52067555 229.49660445a9.68021333 9.68021333 0 0 0 10.80206222 10.80206222L830.21368889 405.68604445c8.00995555-0.97052445 11.28675555-10.68032 5.70368-16.384l-66.38478222-66.38592 191.26727111-191.26727112c3.64088889-3.64088889 3.64088889-9.8304-0.12060445-13.59303111zM423.40465778 589.79328L193.78631111 618.31395555c-8.00995555 0.97052445-11.28675555 10.80092445-5.70368 16.384l66.38478222 66.38592-191.14666666 191.14666667c-3.76149333 3.76149333-3.76149333 9.95100445 0 13.71363556l54.73507555 54.73507555c3.76263111 3.76149333 9.95214222 3.76149333 13.71363556 0L323.03786667 769.41084445l66.38592 66.38592c5.70368 5.70368 15.41233778 2.30513778 16.384-5.70481778l28.39893333-229.49660445c0.84878222-6.31125333-4.49080889-11.65084445-10.80206222-10.80206222z" p-id="2543" fill="#20a0ff"></path></svg>
