<?xml version="1.0" standalone="no"?><!DOCTYPE svg PUBLIC "-//W3C//DTD SVG 1.1//EN" "http://www.w3.org/Graphics/SVG/1.1/DTD/svg11.dtd"><svg t="1625750839014" class="icon" viewBox="0 0 1024 1024" version="1.1" xmlns="http://www.w3.org/2000/svg" p-id="6902" xmlns:xlink="http://www.w3.org/1999/xlink" width="32" height="32"><defs><style type="text/css"></style></defs><path d="M410.855224 511.722044l-114.95526-114.142811-26.903759 26.087313-165.509784-160.613104 120.667787-118.219647 165.505787 160.613104-26.90316 26.907757 114.142811 114.959258L410.855224 511.722044zM295.899964 353.553283l114.95526 114.143411 21.202625-20.382581-114.142811-114.959258 26.90316-26.087713-120.66399-117.407598L147.511971 263.869289l120.66439 116.587554L295.899964 353.553283zM724.753201 896.550131c-22.83152 0-44.841597-8.969918-61.148341-24.460416-105.178489-106.805186-150.019887-150.018887-168.770174-167.952728l-8.969319-8.971917 6.520579-10.595816c55.44281-90.499441 132.898095-123.11213 154.91217-131.265602l8.964922-3.260789 172.848409 161.429151c16.304945 15.490497 25.274664 35.873678 25.274664 58.703999 0 22.826524-8.969918 44.024951-25.274664 59.516448l-44.02615 42.397055C768.778352 888.396659 747.579725 896.550131 724.753201 896.550131zM525.002232 690.273587c23.643969 22.014074 69.300814 67.672918 160.612705 159.802254 9.786365 9.784366 23.643969 15.488499 38.322018 15.488499 14.674051 0 28.535653-5.704133 39.133468-15.488499l44.841597-43.209504c9.785366-9.787364 15.490497-22.83252 15.490497-36.690124 0-13.861602-5.705132-26.906757-15.490497-35.875676l-158.984808-148.383996C623.650949 596.513356 569.028183 625.049009 525.002232 690.273587zM710.8906 848.441948c-9.785366 0-18.750287-4.076236-26.903759-10.596815l0 0-122.295883-119.035094c-7.340023-7.338025-11.417259-17.122391-11.417259-27.721005 0-9.784366 4.077236-18.749288 10.601812-26.90276l0.815447-0.815447c7.337025-7.338025 17.118394-11.414261 27.720206-11.414261 9.781368 0 18.750287 4.076236 26.903759 10.597815l0.815447 0.816446 122.295883 119.035094c4.893682 4.077236 10.598814 12.230708 12.229708 26.087313l0 1.631894 0 1.628896c-0.815447 12.230708-4.892683 21.199627-12.229708 27.723204C731.27378 845.183158 721.488415 848.441948 710.8906 848.441948zM705.181471 815.019609c4.893682 4.076236 9.786365 3.258791 12.229708 0.81145l0.817446-0.81145c0 0 1.630894-1.633892 1.630894-5.710129-0.815447-2.443343-0.815447-4.077236-1.630894-4.892683l-0.817446-0.815447-122.294684-118.220646c-4.077236-3.260789-8.96692-3.260789-11.414261-0.81145-1.627896 1.626897-2.444343 4.076236-2.444343 6.51958 0 3.260789 0.816446 4.076236 2.444343 5.710129L705.181471 815.019609zM764.702116 796.263325c-9.785366 0-18.754285-4.076236-26.907757-10.595816l-0.812449-0.818445-121.484234-118.217648c-7.336026-6.522578-11.412262-16.306944-11.412262-27.721005 0-9.784366 4.076236-18.753285 10.600813-26.906757l0.81145-0.81145c7.342022-7.342022 17.122391-11.418258 27.724203-11.418258 9.781368 0 18.750287 4.076236 26.903759 10.599813l0.815447 0.818445 122.296683 119.031896c7.337025 7.339024 10.597815 15.492496 12.230708 26.090311l0 1.631894c0 10.598814-4.893682 21.19463-13.047154 27.721005C784.26865 793.002536 774.483484 796.263325 764.702116 796.263325zM758.993986 762.83519c4.076236 3.264786 8.968919 3.264786 13.045155 0 0.815447-0.812449 1.632893-2.443343 1.632893-4.077236-0.817446-3.258791-1.632893-4.887686-2.44834-6.51958l-122.296683-118.219647c-4.892683-3.261789-8.968919-3.261789-11.413262-0.816446-1.632893 1.631894-2.445342 4.077236-2.445342 6.524576 0 1.628896 0.812449 3.260789 1.628896 4.076236l0.816446 0.813448L758.993986 762.83519zM240.460752 886.762767c-22.015074 0-43.214101-8.968919-58.703599-23.641971-15.494495-14.679048-25.275863-38.321018-23.647967-61.147342 0.820444-20.38318 9.785765-39.138264 24.459417-52.180422l9.785765-8.968919C423.904976 521.50741 555.166581 395.950937 562.502607 389.426361c8.969918-8.969319 6.525576-15.490497 3.264786-24.459417l0-0.816446c-36.688125-87.239652 15.490497-158.168362 39.133268-184.256074 38.321018-39.953312 84.791311-51.366573 106.805386-52.18302l4.077236 0c8.153472 0 37.505371 1.631894 64.409131 23.646967l12.228709 9.781368-92.127338 92.944783 13.857605 77.454286 76.638839 14.673451 91.315888-92.127737 11.413062 12.229109c17.122391 18.750687 26.09131 43.210104 25.274864 68.489364-0.816446 21.19503-8.152473 63.592684-52.178423 106.801788-31.796442 30.979996-83.163415 52.18302-128.004813 52.18302-22.011076 0-41.581808-4.89628-58.699002-13.049552-4.077236-1.627896-6.526575-3.256192-10.601812-3.256192-2.445342 0-6.521578 0.812049-13.858604 6.520579-5.709129 4.889085-69.301813 71.746756-339.98509 358.735377l-18.754285 19.567733C282.854409 877.793848 263.287675 886.762767 240.460752 886.762767zM711.706047 157.87935c-15.489498 0.812049-53.810317 10.597215-83.977863 42.397654-19.566734 22.011076-63.592684 79.898629-33.425338 150.831936l0.813448 0.812449c3.263787 8.152872 13.860603 34.244182-9.782368 57.887153-9.785366 9.781768-236.439094 225.025832-370.152637 352.214399l-9.781368 9.781368c-8.969319 8.153472-13.858004 18.755284-14.678048 30.984992-0.812449 14.673052 4.89668 28.534654 14.678048 37.501574 9.781368 9.785366 22.830921 15.493495 36.688525 15.493495 13.046155 0 24.459417-4.892683 32.612289-13.861602l19.566734-21.198627c220.949196-233.991754 332.648065-351.395354 341.612986-360.36827 11.417259-10.597215 22.83152-15.4865 35.060229-15.4865 10.597815 0 18.751287 3.256792 24.460416 6.520979 13.045155 6.520979 27.719206 9.785765 44.025151 9.785765 36.688925 0 79.087179-17.126788 105.989939-43.214101 37.505371-37.504972 42.398054-72.561603 42.398054-85.607158 0.812449-11.413662-2.44834-22.830921-7.341023-32.612289l-78.266735 79.082182-114.143411-21.19463-20.382181-114.143411 77.454286-78.270333c-11.417259-5.704532-22.015074-7.337025-30.167546-7.337025L711.706047 157.87935zM241.272801 852.518185c-13.041558 0-25.271266-4.887686-34.244782-13.856605-18.750287-19.565734-18.750287-50.551526 0-68.485367 8.973316-8.968919 21.203024-13.861602 34.244782-13.861602 13.045555 0 25.275263 4.892683 34.244782 13.861602 18.750287 18.750287 18.750287 48.919632 0 68.485367C267.363911 847.630499 254.318356 852.518185 241.272801 852.518185zM241.272801 787.294606c-4.888685 0-8.965322 1.631894-12.229708 4.892683-6.520579 6.525576-6.520579 17.937838 0 25.274664 5.70853 5.70813 17.938238 5.70813 24.459417 0 6.520579-6.51958 6.520579-17.937838 0-24.459417C251.058167 788.9265 246.165484 787.294606 241.272801 787.294606z" p-id="6903" data-spm-anchor-id="a313x.7781069.0.i12" class="selected" fill="#707070"></path></svg>