<?xml version="1.0" standalone="no"?><!DOCTYPE svg PUBLIC "-//W3C//DTD SVG 1.1//EN" "http://www.w3.org/Graphics/SVG/1.1/DTD/svg11.dtd"><svg t="1631003749651" class="icon" viewBox="0 0 1024 1024" version="1.1" xmlns="http://www.w3.org/2000/svg" p-id="8561" width="128" height="128" xmlns:xlink="http://www.w3.org/1999/xlink"><defs><style type="text/css"></style></defs><path d="M191.51 209.61c-10.37-4.1-21.67-6.35-33.5-6.35-11.83 0-23.13 2.25-33.5 6.35V50.27c0-18.5 15-33.5 33.5-33.5 18.51 0 33.5 15 33.5 33.5v159.34z m0 169.1v593.95c0 18.5-14.99 33.5-33.5 33.5-18.5 0-33.5-15-33.5-33.5V378.71c10.37 4.1 21.67 6.35 33.5 6.35 11.83 0 23.14-2.25 33.5-6.35zM541.16 641.82c-10.4-4.14-21.75-6.41-33.62-6.41-11.78 0-23.05 2.24-33.38 6.32V50.27c0-18.5 15-33.5 33.5-33.5s33.5 15 33.5 33.5v591.55z m0 169.2v161.63c0 18.5-15 33.5-33.5 33.5s-33.5-15-33.5-33.5V811.11c10.33 4.08 21.6 6.32 33.38 6.32a90.56 90.56 0 0 0 33.62-6.41z m359.01-474.95c-10.55-4.27-22.09-6.63-34.18-6.63-11.57 0-22.64 2.16-32.82 6.09V50.27c0-18.5 15-33.5 33.5-33.5s33.5 15 33.5 33.5v285.8z m0 168.55v468.04c0 18.5-15 33.5-33.5 33.5s-33.5-15-33.5-33.5v-467.5c10.18 3.93 21.25 6.09 32.82 6.09 12.09 0 23.63-2.36 34.18-6.63z m0 0" fill="#515151" p-id="8562" data-spm-anchor-id="a313x.7781069.0.i10" class="selected"></path><path d="M158.01 452.06C70.76 452.06 0 381.38 0 294.16c0-87.23 70.76-157.9 158.01-157.9 87.25 0 158.01 70.67 158.01 157.9 0 87.22-70.76 157.9-158.01 157.9z m349.53 432.38c-87.27 0-158.02-70.75-158.02-158.02 0-87.26 70.75-158.01 158.02-158.01 87.26 0 158.01 70.75 158.01 158.01 0 87.27-70.75 158.02-158.01 158.02z m358.45-306.19c-87.24 0-158.01-70.68-158.01-157.91s70.76-157.9 158.01-157.9c87.25 0 158.02 70.68 158.02 157.9s-70.77 157.91-158.02 157.91zM158.01 385.06c50.26 0 91.01-40.7 91.01-90.9s-40.75-90.9-91.01-90.9-91.01 40.7-91.01 90.9 40.75 90.9 91.01 90.9z m349.53 432.38c50.26 0 91.01-40.75 91.01-91.02 0-50.26-40.75-91.01-91.01-91.01-50.27 0-91.02 40.75-91.02 91.01 0 50.27 40.75 91.02 91.02 91.02z m358.45-306.19c50.27 0 91.02-40.7 91.02-90.9s-40.75-90.9-91.02-90.9c-50.26 0-91.01 40.7-91.01 90.9s40.75 90.9 91.01 90.9z m0 0" fill="#515151" p-id="8563" data-spm-anchor-id="a313x.7781069.0.i9" class="selected"></path></svg>
