<svg t="1632560005224" class="icon" viewBox="0 0 1024 1024" version="1.1" xmlns="http://www.w3.org/2000/svg" p-id="2336" width="200" height="200"><path d="M956.0270317 56.45198222l-244.92745007 30.42205393c-8.54395259 1.03522608-12.03920592 11.3911277-6.08392533 17.47626667l70.811648 70.81043436-198.71243378 198.71243379c-4.01225955 4.01225955-4.01225955 10.61440475 0 14.62787792l58.38408059 58.38408059c4.01347318 4.01225955 10.61561837 4.01225955 14.62787792 0l198.84107852-198.84107851L919.77955555 318.85448533c6.08392533 6.08513897 16.44104059 2.46002725 17.47626667-6.08392533l30.29219556-244.7975917c0.90658133-6.73078992-4.79019615-12.42756741-11.52098608-11.52098608zM388.50104889 577.11487052c-4.01347318-4.01225955-10.61561837-4.01225955-14.62787792 0l-198.71243379 198.84107851-70.81043436-70.81043436c-6.08513897-6.08513897-16.44104059-2.46002725-17.47626667 6.08392533L56.45198222 956.0270317a10.32556089 10.32556089 0 0 0 11.52098608 11.52098608l244.92745007-30.42205393c8.54395259-1.03522608 12.03920592-11.3911277 6.08392533-17.47626667l-70.811648-70.81043436 198.84107852-198.84107852c4.01347318-4.01347318 4.01347318-10.61561837 0-14.62909155l-58.51272533-58.25422223z" p-id="2337" fill="#20a0ff"></path></svg>
