<?xml version="1.0" standalone="no"?><!DOCTYPE svg PUBLIC "-//W3C//DTD SVG 1.1//EN" "http://www.w3.org/Graphics/SVG/1.1/DTD/svg11.dtd"><svg t="1631957691590" class="icon" viewBox="0 0 1024 1024" version="1.1" xmlns="http://www.w3.org/2000/svg" p-id="45196" xmlns:xlink="http://www.w3.org/1999/xlink" width="128" height="128"><defs><style type="text/css"></style></defs><path d="M520 829.4c-147.4 0-274.4-104-303-248.4-28.8-144.6 48.4-289.4 184.6-345.8 136-56.4 293.2-9 375.2 113.6s65.8 285.8-38.4 390c-58 58-136.6 90.4-218.4 90.6z m0-585.4c-111.8 0-212.8 67.2-255.6 170.6-42.8 103.4-19.2 222.2 59.8 301.4 79 79.2 198 102.8 301.4 60 103.4-42.8 170.6-143.8 170.6-255.6 0-152.6-123.8-276.2-276.2-276.4z m0 0" fill="#FF7676" p-id="45197" data-spm-anchor-id="a313x.7781069.0.i12" class="selected"></path><path d="M493.2 975.6c-0.4 9-8.2 16-17.4 15.4-121-9-234.2-63.6-316.8-153.2-86.2-93.6-131.8-217.6-126.6-344.8 0.2-5.4 0.6-10.8 1-16.6 0.8-9.2 9-15.8 18-14.8h0.2c8.6 1 15 8.8 14.2 17.4-0.4 5.6-0.8 10.6-1 15.6-4.6 118.8 37.8 234.2 118.2 321.4 76.8 83.4 182.4 134.2 295.2 142.6 8.8 0.6 15.4 8.2 15 17z m205-38.8c-3.6-8-0.2-17.4 7.8-21.2 106.6-51.4 188.8-143 228.2-255 39.4-112.2 32.4-235-19-341.8-3.8-7.8-0.6-17.4 7-21.4h0.2c8-4.2 18.2-1 22 7.2 55.2 114.4 62.6 246.4 20.6 366.6-42.2 120.4-130.4 218.8-244.8 273.8-8.2 4-18 0.4-21.8-8l-0.2-0.2zM120.4 265c-7.8-4.8-9.8-15.2-4.8-22.8 71.6-105 182-177.2 307.4-201 125.2-23.6 254.4 3.6 359.2 75 7.6 5.2 9.2 15.6 3.8 23v0.2c-5.2 7-15 8.6-22.2 3.8a447.06 447.06 0 0 0-335-70.2c-116.8 22-219.6 89.6-286.6 187.4-4.8 7.2-14.4 9.2-21.8 4.6z" fill="#FF7676" p-id="45198" data-spm-anchor-id="a313x.7781069.0.i15" class="selected"></path><path d="M231 766.2c-6.8 6.2-17.6 5.4-23.6-1.6-63.4-75-96.6-171.4-92.6-270 4.2-104.2 49.8-202.6 126.4-273.4 2.6-2.4 5.2-4.6 8-7 7-6 17.6-5 23.4 2.2 5.6 6.8 4.6 16.8-2 22.6-2.4 2.2-4.8 4.2-7 6.4-142.6 131.6-155.2 351.4-31 498 5.6 6.8 5 16.8-1.6 22.8z" fill="#FF7676" p-id="45199" data-spm-anchor-id="a313x.7781069.0.i16" class="selected"></path><path d="M389.6 439.2l81.4 81.4-81.4 81.4 48.8 48.8 81.4-81.4 81.4 81.4L650 602l-81.4-81.4 81.4-81.4-48.8-48.8-81.4 81.2-81.4-81.4-48.8 49z m0 0" fill="#FF7676" opacity=".3" p-id="45200"></path><path d="M565.6 638.4l-46-45.8-45.4 45.2c-19.8 19.8-52 19.8-71.8 0-19.8-19.8-19.8-52 0-71.8l45.4-45.4-45.4-45.4c-19.8-19.8-19.8-52 0-71.8 19.8-19.8 52-19.8 71.8 0l45.4 45.2 45.8-45.8c19.6-19.4 51.2-19.4 70.8 0l1 1c19.6 19.6 19.6 51.2 0 70.8l-45.8 45.8 45.8 45.8c19.6 19.6 19.6 51.2 0 70.8l-1 1c-19.4 19.8-51 19.8-70.6 0.4z m-140-23.6c7.2 7 18.6 7 25.8 0l68.4-68.4 68.6 68.6c7 7 18.4 7 25.4 0l0.4-0.4c7-7 7-18.4 0-25.4l-68.6-68.6 68.6-68.6c7-7 7-18.4 0-25.4l-0.4-0.4c-7-7-18.4-7-25.4 0l-68.6 68.6-68.4-68.4c-7.2-7.2-18.6-7.2-25.8 0-7.2 7.2-7.2 18.6 0 25.8l68.4 68.4-68.4 68.4c-7.2 7-7.2 18.6 0 25.8z" fill="#FF7676" p-id="45201" data-spm-anchor-id="a313x.7781069.0.i13" class="selected"></path></svg>