<?xml version="1.0" standalone="no"?><!DOCTYPE svg PUBLIC "-//W3C//DTD SVG 1.1//EN" "http://www.w3.org/Graphics/SVG/1.1/DTD/svg11.dtd"><svg t="1631956766921" class="icon" viewBox="0 0 1024 1024" version="1.1" xmlns="http://www.w3.org/2000/svg" p-id="13434" xmlns:xlink="http://www.w3.org/1999/xlink" width="128" height="128"><defs><style type="text/css"></style></defs><path d="M585.6 949.6c-28 1.6-55.2 4.8-82.4 4.8-9.6 0-19.2-1.6-28.8-4-5.6-0.8-12.8 0.8-19.2 0-16.8 1.6-32-1.6-33.6-27.2l-20.8 19.2c-47.2-11.2-92.8-28.8-131.2-55.2-15.2-10.4-30.4-20.8-45.6-32.8-4.8-6.4-12-12.8-15.2-21.6-4-3.2-8.8-5.6-12.8-7.2-6.4-4-18.4-5.6-11.2-18.4 0-1.6-3.2-7.2-3.2-7.2-16 7.2-15.2-8.8-21.6-14.4 29.6-11.2 38.4-7.2 40 11.2 22.4 10.4 41.6 28 52.8 50.4 0 1.6 6.4 2.4 8.8 5.6 6.4 2.4 12.8 7.2 17.6 12 4 3.2 7.2 8 11.2 11.2 8 4 19.2 4 26.4 8 46.4 23.2 96 37.6 148 43.2 12.8-0.8 24.8 0.8 38.4 2.4 15.2 0.8 31.2-0.8 46.4-3.2 19.2 0 36.8-3.2 55.2-8.8 39.2-13.6 77.6-28 117.6-44l4.8 4.8 16.8-10.4-2.4-1.6c0.8-4 4-10.4 6.4-14.4 4.8-4.8 9.6-9.6 14.4-12 2.4 11.2 9.6 20.8 19.2 22.4-56.8 39.2-112 72.8-180.8 80-1.6 0-3.2 4-4.8 6.4l-10.4 0.8zM260 139.2c8.8 8 24 6.4 31.2-4 3.2-2.4 4.8-6.4 4-10.4 0.8-4 4-8 8.8-11.2 19.2-9.6 38.4-16.8 57.6-24l1.6 8.8c1.6-2.4 4.8-3.2 6.4-4.8 3.2-2.4 5.6-8.8 8-8.8l56-11.2-8 26.4c-24.8 6.4-50.4 13.6-74.4 24-34.4 16-68.8 36-100.8 55.2-10.4 5.6-15.2 8.8-23.2-3.2l0.8 15.2-98.4 122.4c-0.8 5.6-0.8 13.6-4 19.2-7.2 15.2-12.8 30.4-17.6 46.4-3.2 21.6-17.6 26.4-38.4 26.4 28.8-108 95.2-204 190.4-266.4z m604.8 112.8c-7.2 3.2-14.4 4.8-21.6 4-5.6-0.8-14.4-4.8-15.2-8.8-5.6-20-25.6-24.8-36-38.4-4.8-4.8-11.2-7.2-13.6-12.8-3.2-4.8-5.6-8-6.4-13.6-8-2.4-14.4-4.8-20-7.2-41.6-31.2-88.8-54.4-139.2-67.2-29.6-5.6-60.8-11.2-91.2-12.8-24.8-2.4-51.2 0.8-75.2 3.2-4 0.8-5.6-0.8-9.6-1.6 13.6-16 23.2-34.4 50.4-32.8 17.6 2.4 36.8-3.2 56 8 6.4 4 18.4-3.2 28-1.6 55.2 8 108.8 26.4 157.6 54.4l-16 14.4c38.4-16.8 57.6 15.2 80 32 12.8 10.4 25.6 21.6 36.8 34.4L816 216c19.2 2.4 39.2 15.2 48.8 36z m-187.2 57.6c-9.6-1.6-17.6-4-26.4-8-119.2-78.4-279.2-48-361.6 70.4-6.4 7.2-14.4 12-23.2 16 0.8-8 16-7.2 5.6-18.4l4-6.4c16.8-20 36-39.2 52.8-57.6 3.2-2.4 8.8-3.2 12-6.4 3.2-2.4 10.4-4 12-6.4 5.6-18.4 16-14.4 31.2-4L374.4 272c11.2-2.4 20-2.4 31.2-4l7.2-1.6c12.8-19.2 34.4-17.6 52.8-21.6 24-2.4 46.4-3.2 69.6 0 15.2 0.8 28.8 4 43.2 6.4 16 4.8 30.4 11.2 44.8 17.6 15.2 8.8 29.6 16.8 42.4 25.6l12.8 8.8-0.8 6.4z" fill="#CC4425" p-id="13435"></path><path d="M758.4 839.2c17.6-16.8 35.2-33.6 54.4-48 8-7.2 18.4-12.8 29.6-20.8l-2.4-3.2c19.2-37.6 36.8-72.8 54.4-108.8 9.6-19.2 11.2-20.8 36-20 2.4 12.8-8 26.4-20.8 28.8l-4 0.8 12.8 7.2c0 20.8-16.8 31.2-22.4 48-8.8 32-20.8 40-26.4 37.6-2.4 8-6.4 16-10.4 24.8-16.8 20.8-35.2 40.8-54.4 60-14.4 14.4-24 14.4-36-2.4-4-4.8-7.2-5.6-10.4-4zM473.6 792l8-7.2-2.4-3.2-20 13.6-2.4-3.2 9.6-7.2c-9.6 0-17.6-4-20.8-1.6-11.2 9.6-16 3.2-23.2-4.8-2.4-3.2-8-2.4-12-1.6-13.6-0.8-22.4-8.8-24-27.2 16.8 8 31.2 16.8 48 22.4 6.4 2.4 12.8-0.8 19.2 1.6 47.2 11.2 97.6 9.6 144-7.2 42.4-13.6 80.8-40 108-76 8.8-11.2 16-24 36-20-18.4 22.4-30.4 49.6-60 60.8-4 0.8-5.6 10.4-11.2 11.2-12 8-20.8 20.8-38.4 16.8l-4 0.8c-41.6 27.2-44.8 29.6-80.8 32.8-24 2.4-48.8 1.6-75.2 3.2l1.6-4zM296.8 298.4c-24 2.4-40.8 23.2-40 47.2-9.6-20.8-34.4-31.2-57.6-24.8 15.2-18.4 18.4-43.2 4.8-63.2 20.8 11.2 46.4 4 60-13.6-3.2 24 10.4 45.6 32.8 54.4z m84.8 562.4c-20.8-8.8-44-2.4-57.6 15.2 4.8-23.2-7.2-45.6-28-56.8 22.4-2.4 40.8-21.6 42.4-44 13.6 20 29.6 33.6 52.8 29.6-16 14.4-19.2 37.6-9.6 56z" fill="#CC4425" p-id="13436"></path><path d="M810.4 777.6c-20.8-9.6-42.4-3.2-57.6 12.8-25.6-13.6-35.2-45.6-23.2-71.2 6.4-14.4 21.6-24.8 36-28 9.6 20.8 32.8 33.6 54.4 28.8-14.4 13.6-19.2 36.8-9.6 57.6zM683.2 257.6c-12.8-16.8-28.8-30.4-54.4-19.2 14.4-21.6 18.4-39.2 4.8-63.2 19.2 9.6 40.8 7.2 55.2-7.2l28.8 48.8c-7.2 3.2-16 7.2-20 13.6-8.8 8.8-12.8 16.8-14.4 27.2zM422.4 132.8c11.2 18.4 33.6 27.2 55.2 21.6-16 16-18.4 41.6-7.2 61.6-20.8-8.8-46.4-4-60 13.6 4.8-21.6-6.4-44-27.2-52.8 22.4-7.2 36-24.8 39.2-44zM575.2 908c-11.2-18.4-33.6-27.2-55.2-23.2 16-16 18.4-41.6 7.2-60 24 6.4 41.6 8.8 60-12 0.8 24 6.4 42.4 31.2 52.8-24.8 8.8-42.4 17.6-43.2 42.4zM62.4 454.4c3.2-0.8 5.6-1.6 6.4-2.4 1.6 0 5.6 0.8 12.8 3.2 6.4 2.4 13.6 3.2 22.4 3.2 8 0 17.6 0 28-1.6 3.2 0 8.8-0.8 15.2-1.6 7.2-0.8 15.2-1.6 24-1.6 8.8-0.8 17.6-1.6 27.2-2.4 9.6-0.8 17.6-0.8 25.6-1.6h20c5.6 0 8.8 0 9.6 0.8 1.6 0.8 3.2 1.6 5.6 1.6 1.6 0.8 3.2 0.8 5.6 1.6l-8 12c-3.2 1.6-5.6 2.4-7.2 2.4-1.6 0.8-3.2 0.8-5.6 0.8-2.4 0-4 1.6-5.6 3.2-2.4 1.6-7.2 1.6-15.2 0.8-8-1.6-14.4 1.6-19.2 8.8-4.8 7.2-16.8 10.4-36 11.2-20 0.8-30.4 1.6-31.2 4-0.8 2.4-2.4 4.8-4.8 6.4 2.4 4 4 8.8 4 12.8 0.8 3.2 0.8 7.2 0.8 12s0.8 10.4 0.8 16c0.8 5.6 0.8 10.4 0.8 15.2 0 4.8 0.8 8 1.6 9.6 8-1.6 16-2.4 24-2.4s13.6 0 16.8-0.8h6.4c3.2 0 5.6 0 9.6-0.8h30.4c2.4 0 5.6 0 8-0.8 2.4 0 4.8-0.8 6.4-0.8h16c1.6 0 3.2 0 5.6-0.8 2.4 1.6 4 3.2 4 4-1.6 1.6-3.2 3.2-5.6 3.2-1.6 0-3.2 1.6-4 4-0.8 0.8-2.4 1.6-5.6 3.2-3.2 0.8-6.4 2.4-10.4 3.2-4 0.8-8 2.4-12 3.2-4 0.8-7.2 1.6-10.4 2.4-1.6 0-4 0.8-7.2 1.6s-6.4 1.6-8.8 2.4c-3.2 0.8-5.6 1.6-8.8 2.4-3.2 0.8-4.8 1.6-6.4 2.4-4.8 2.4-8 4-9.6 4h-3.2c-1.6 0-4 0.8-6.4 0.8-2.4 0.8-4.8 0.8-8.8 2.4-0.8 0.8-2.4 1.6-4.8 2.4s-6.4 3.2-12 6.4c-1.6 2.4-2.4 4-2.4 6.4v9.6c-0.8 2.4-0.8 5.6-1.6 8.8 0 3.2-0.8 6.4-0.8 8.8 0 2.4-0.8 4.8-0.8 7.2-0.8 2.4-0.8 4-1.6 5.6-0.8 2.4-0.8 4-0.8 6.4v6.4c0 2.4-0.8 4-0.8 6.4 0 2.4-0.8 4.8-1.6 7.2-0.8 2.4-1.6 4-1.6 6.4 0 2.4-0.8 4.8-2.4 6.4-0.8 1.6-1.6 4-2.4 7.2-0.8 2.4-1.6 6.4-3.2 10.4l-7.2 5.6-6.4-3.2c-0.8-4-0.8-7.2 0-11.2 0-1.6 0-4.8-1.6-9.6s-3.2-12-4-20.8c-1.6-8.8-2.4-16-3.2-22.4-0.8-6.4-1.6-12-1.6-16.8-0.8-4-1.6-9.6-2.4-16-1.6-6.4-2.4-12.8-4-19.2-1.6-6.4-3.2-12.8-4.8-18.4-1.6-5.6-2.4-10.4-3.2-14.4-1.6-4-2.4-7.2-2.4-11.2v-11.2c0-4 0-8-0.8-12.8-0.8-4.8-2.4-9.6-4-13.6-1.6-4.8-3.2-8.8-4.8-12-1.6-4-3.2-6.4-4.8-8-0.8-1.6-1.6-4-2.4-5.6-0.8-1.6-1.6-4-1.6-6.4 0-2.4-0.8-4.8-3.2-6.4-1.6-1.6-4-3.2-6.4-4.8-2.4-1.6-4-3.2-4.8-4-0.8-1.6-0.8-2.4-0.8-4v-4.8c0-1.6 0-4-0.8-6.4l1.6-1.6 6.4 5.6 6.4-5.6zM440.8 383.2c1.6 0.8 2.4 0 3.2 0 0.8-0.8 2.4 0 4.8 1.6 0.8 0.8 2.4 1.6 4 3.2s3.2 2.4 5.6 4c4 5.6 7.2 10.4 9.6 13.6 2.4 3.2 4 6.4 5.6 8.8 3.2 4.8 7.2 9.6 12.8 12.8 2.4 2.4 4.8 4 7.2 6.4 1.6 2.4 4 4 5.6 5.6 1.6 2.4 4 5.6 6.4 8.8 3.2 3.2 6.4 7.2 9.6 11.2l-1.6 7.2 4.8 5.6c0.8 0.8 2.4 3.2 4.8 8 2.4 4 4.8 9.6 8 15.2 2.4 5.6 4.8 12 7.2 17.6 2.4 6.4 3.2 12 4 16.8 0.8 9.6 1.6 16 4 18.4 1.6 2.4 3.2 4.8 3.2 6.4 0 0.8 0 1.6 0.8 4 0 1.6 0.8 4 1.6 6.4l-4 3.2 1.6 1.6c0.8 0 0.8 0.8 0.8 0.8 1.6 7.2 2.4 12.8 3.2 15.2 0.8 2.4 0.8 5.6 1.6 8 0.8 2.4 0.8 6.4 0.8 10.4 0 4.8 0.8 8.8 0.8 13.6v12.8c0 4-0.8 6.4-0.8 7.2-0.8 0.8-1.6 2.4-1.6 4-0.8 1.6-0.8 2.4-1.6 4l-2.4 0.8c-1.6-4.8-3.2-10.4-4.8-16.8-1.6-6.4-4-12.8-6.4-20s-4.8-13.6-7.2-20c-2.4-6.4-4.8-12-7.2-17.6-3.2-2.4-5.6-5.6-7.2-9.6-0.8-3.2-2.4-5.6-4.8-8-0.8-0.8-1.6-1.6-2.4-3.2-0.8-0.8-1.6-2.4-3.2-4h-4c-0.8-0.8-4 0.8-8.8 3.2-5.6 2.4-12 5.6-20.8 8.8-8.8 3.2-17.6 5.6-27.2 7.2-9.6 1.6-16 2.4-20.8 2.4-10.4-0.8-16.8 0-20 1.6-1.6 1.6-3.2 4-6.4 5.6 0 16 0 32 0.8 48.8 0.8 8 0.8 15.2 0.8 20.8v13.6l-9.6 7.2-7.2 12c-1.6 0-2.4-0.8-4-2.4-0.8-0.8-1.6-0.8-3.2 0s-4 0.8-8 1.6l-4.8-4-4-1.6c-2.4 0-4.8-1.6-7.2-4.8l-5.6-1.6-4.8-1.6c0-3.2 0-5.6 0.8-7.2 0-1.6 0.8-3.2 0.8-4 0.8-1.6 1.6-4.8 0.8-8s-1.6-6.4-1.6-9.6 0.8-6.4 3.2-8.8c1.6-2.4 3.2-6.4 3.2-12v-13.6c0-4 0.8-5.6 1.6-6.4 0.8-0.8 0.8-1.6 0.8-2.4s-0.8-2.4-0.8-4-0.8-4-0.8-6.4v-9.6l4.8-2.4c-0.8-2.4-0.8-4.8 0-7.2 0-0.8 0-1.6 0.8-3.2v-4c0-4 0.8-7.2 2.4-11.2 1.6-2.4 2.4-6.4 3.2-12 0.8-4 1.6-9.6 3.2-16s3.2-12 4.8-15.2c0-2.4 0.8-4.8 1.6-6.4 0.8-1.6 0.8-4 1.6-6.4 0-1.6 0.8-3.2 0.8-5.6 0-1.6 0.8-3.2 1.6-4 0.8-0.8 1.6-1.6 1.6-3.2v-4c0.8-2.4 1.6-5.6 3.2-9.6s3.2-6.4 4-8c0.8-0.8 0.8-3.2 0-7.2l5.6-4 10.4-27.2 8-4 3.2-8.8c1.6-2.4 3.2-4.8 4.8-6.4 1.6-1.6 2.4-3.2 4-4.8 1.6-1.6 4-3.2 7.2-4 3.2-0.8 5.6-0.8 7.2 0 1.6 0 4.8-0.8 6.4-4z m-17.6 64c-0.8 1.6-1.6 3.2-1.6 4.8 0 2.4-1.6 6.4-4 11.2-0.8 3.2-2.4 6.4-3.2 9.6-0.8 3.2-1.6 7.2-2.4 11.2-0.8 4.8-1.6 10.4-3.2 18.4s-2.4 17.6-4.8 28c1.6 0.8 3.2 1.6 4.8 1.6 1.6 0.8 2.4 0.8 4 0.8 2.4 0.8 5.6 1.6 11.2 1.6s11.2 0 18.4-1.6c3.2 0 6.4-0.8 9.6-0.8 3.2 0 5.6 0 8.8-0.8h8.8c3.2 0 6.4-0.8 9.6-2.4 7.2-2.4 11.2-2.4 12.8-0.8 0.8 1.6 2.4 2.4 4.8 2.4l1.6-2.4c-8.8-12.8-17.6-25.6-27.2-37.6s-19.2-24-30.4-35.2l-13.6-8.8-4 0.8zM590.4 360.8c1.6 1.6 4.8 1.6 8 0.8l2.4-3.2c5.6 1.6 11.2 0.8 16.8-3.2l2.4 1.6h4c1.6 0 2.4-0.8 4-0.8h5.6c3.2 0 5.6 0.8 7.2 2.4 3.2 2.4 5.6 2.4 8.8 0.8 3.2-1.6 5.6-0.8 7.2 0.8 1.6 1.6 4 3.2 7.2 4l8 9.6c0 0.8-0.8 1.6-0.8 2.4v2.4c0 0.8 0.8 4 2.4 9.6 1.6 5.6 4 12.8 7.2 23.2 6.4 20 9.6 35.2 9.6 46.4 0.8 11.2 2.4 22.4 4 31.2s3.2 19.2 2.4 28.8v14.4c0 4.8 1.6 9.6 2.4 14.4 0.8 4.8 1.6 8.8 2.4 12 0.8 3.2 0 6.4 0 8.8-0.8 3.2-0.8 8-0.8 12.8 0 5.6 0.8 11.2 0.8 16 0 4.8 0 10.4-1.6 17.6-3.2 1.6-7.2 3.2-12.8 4-5.6 0.8-9.6 0.8-12 0-4.8-3.2-7.2-4-8.8-3.2-3.2 1.6-5.6 0.8-8.8-0.8-0.8-1.6-1.6-3.2-2.4-4s-1.6-2.4-1.6-4c-0.8-1.6-0.8-3.2-0.8-5.6 0-2.4 0-4.8 0.8-8.8 0-4 0-10.4-0.8-19.2-0.8-8.8-2.4-19.2-4-31.2-1.6-11.2-4-23.2-5.6-35.2s-4.8-23.2-7.2-32.8c-4.8-19.2-8.8-34.4-11.2-45.6-3.2-10.4-6.4-20-9.6-27.2-3.2-7.2-6.4-11.2-8.8-12.8-0.8-0.8-2.4-1.6-3.2-2.4s-2.4-2.4-4.8-3.2l2.4-3.2-10.4-17.6zM777.6 325.6l2.4 4c4 2.4 8 4 12 4.8 4 1.6 11.2 1.6 20 2.4l3.2 2.4 5.6 0.8 4 24c0.8 3.2 1.6 6.4 1.6 9.6 0.8 3.2 1.6 7.2 2.4 11.2 0.8 4.8 1.6 8.8 2.4 12s0.8 6.4 0.8 8.8c0 4.8 0.8 10.4 2.4 16.8 1.6 6.4 2.4 10.4 1.6 12-1.6 2.4-1.6 5.6-0.8 8.8 0.8 1.6 0.8 3.2 0.8 4.8 0 1.6 0 4 0.8 7.2 0 2.4 0.8 5.6 1.6 9.6 0.8 3.2 1.6 7.2 3.2 10.4 2.4 7.2 3.2 12 2.4 14.4-0.8 3.2-0.8 4.8 0.8 5.6 0.8 0.8 0.8 2.4 1.6 5.6 0.8 3.2 1.6 7.2 1.6 12.8 0 5.6 0.8 10.4 1.6 13.6 0.8 4 1.6 6.4 2.4 8.8 0.8 2.4 0.8 4.8 1.6 5.6s1.6 2.4 1.6 2.4c0.8 0.8 1.6 1.6 3.2 2.4 3.2 0.8 4.8 1.6 7.2 1.6 1.6 0 4 0.8 5.6 0.8 3.2 0.8 7.2 0.8 12.8 1.6 5.6 0.8 11.2 0 17.6-0.8 7.2-0.8 12-0.8 14.4 0 3.2 0.8 7.2 0 12-1.6 5.6-1.6 8.8-2.4 11.2-1.6 2.4 0.8 4 0.8 5.6-0.8 1.6-0.8 3.2-1.6 3.2-0.8 0.8 0.8 2.4 1.6 2.4 1.6l1.6-1.6 12-2.4c1.6 0 4.8-0.8 8-2.4 2.4-0.8 4-0.8 4-0.8 0.8 0.8 1.6 1.6 3.2 1.6l-2.4 6.4c-0.8 1.6-3.2 4-8 5.6l-12.8 8c-4 3.2-6.4 4.8-8.8 4.8-2.4 0.8-4.8 1.6-5.6 3.2-1.6 1.6-4 3.2-8 4.8-4 1.6-11.2 3.2-20.8 4.8-10.4 1.6-20 3.2-28.8 4-4.8 0.8-9.6 0.8-15.2 0.8s-11.2 0-16.8-0.8c-5.6 0-10.4-0.8-16-1.6-4.8-0.8-8.8-1.6-11.2-2.4l-5.6-9.6c-1.6-1.6-1.6-3.2-1.6-4.8 0-1.6-0.8-3.2-3.2-4.8-2.4-1.6-4.8-4.8-7.2-8-2.4-4-4.8-10.4-6.4-19.2-2.4-8.8-4-17.6-5.6-25.6-0.8-4-1.6-8.8-2.4-13.6-0.8-4.8-2.4-10.4-4-16.8s-4-15.2-6.4-26.4c-2.4-12-4.8-24-8-36-2.4-12-4.8-23.2-6.4-33.6-1.6-10.4-2.4-17.6-2.4-20.8 0-7.2-0.8-12.8-3.2-16-1.6-3.2-2.4-5.6-1.6-7.2v-3.2l-0.8-0.8-0.8-0.8c0.8 0 1.6-0.8 1.6-1.6 0 0 0.8-0.8 1.6 0s1.6 0.8 4.8 0.8l3.2-4 7.2-0.8z" fill="#CC4425" p-id="13437"></path></svg>