<svg t="1648265499962" class="icon" viewBox="0 0 1024 1024" version="1.1" xmlns="http://www.w3.org/2000/svg" p-id="53978" width="200" height="200"><path d="M914.285714 438.857143a36.571429 36.571429 0 0 1 36.571429 36.571428v438.857143a36.571429 36.571429 0 0 1-29.988572 35.986286L914.285714 950.857143H196.608l10.459429 10.678857a36.571429 36.571429 0 0 1-0.292572 51.346286l-0.292571 0.365714a36.132571 36.132571 0 0 1-51.126857 0l-0.292572-0.365714-69.485714-71.094857A36.571429 36.571429 0 0 1 109.714286 877.714286H877.714286V475.428571a36.571429 36.571429 0 0 1 36.571428-36.571428zM867.986286 11.556571l69.705143 69.851429 1.097142 1.170286A36.498286 36.498286 0 0 1 914.285714 146.285714H146.285714v402.285715a36.571429 36.571429 0 0 1-73.142857 0v-438.857143a36.571429 36.571429 0 0 1 36.571429-36.571429h716.434285L816.274286 63.195429a36.571429 36.571429 0 0 1 0-51.712h0.073143a36.571429 36.571429 0 0 1 51.638857 0z" p-id="53979"></path><path d="M621.714286 292.571429a36.571429 36.571429 0 0 1 0 73.142857H438.857143v146.285714h182.857143a36.571429 36.571429 0 0 1 0 73.142857H438.857143v182.857143a36.571429 36.571429 0 1 1-73.142857 0v-438.857143a36.571429 36.571429 0 0 1 36.571428-36.571428h219.428572z" p-id="53980"></path></svg>
