<svg t="1709111862943" class="icon" viewBox="0 0 1024 1024" version="1.1" xmlns="http://www.w3.org/2000/svg" p-id="9754" width="200" height="200"><path d="M776.704 845.312c-9.216 0-27.648 0-36.864-9.216l-174.592-193.024c-18.432-18.432-18.432-46.08 0-64.512s46.08-18.432 64.512 0l174.592 193.024c18.432 18.432 18.432 46.08 0 64.512 0 9.216-9.216 9.216-27.648 9.216z" p-id="9755"></path><path d="M574.464 863.744c-9.216 0-18.432 0-27.648-9.216-18.432-18.432-18.432-36.864 0-55.296l239.104-248.32c18.432-18.432 36.864-18.432 55.296 0 18.432 18.432 18.432 36.864 0 55.296l-239.104 248.32c-9.216 9.216-18.432 9.216-27.648 9.216zM553.984 166.4c18.432 0 64.512 9.216 64.512 55.296 0 36.864-55.296 27.648-73.728 27.648-82.944 0-110.592 46.08-119.808 82.944l-18.432 110.592h92.16c18.432 0 36.864 18.432 36.864 36.864s-18.432 36.864-36.864 36.864H397.824l-64.512 285.184s-9.216 82.944-64.512 82.944-27.648-82.944-27.648-82.944l64.512-275.968H222.72c-18.432 0-36.864-18.432-36.864-36.864 0-36.864 18.432-46.08 36.864-46.08h101.376L351.744 322.56c18.432-156.16 156.672-165.376 202.24-156.16z" p-id="9756"></path></svg>
