<svg t="1670050573039" class="icon" viewBox="0 0 1024 1024" version="1.1" xmlns="http://www.w3.org/2000/svg" p-id="1384" width="200" height="200"><path d="M149.615 736V539.048H60.823V736H0V288h60.823v178.163h88.792V288h60.823v448h-60.823zM401.281 357.646V736H340.68V357.646H251V288h242.626l-6.216 69.646h-86.129zM667.281 357.646V736h-60.6V357.646H517V288h242.626l-6.216 69.646h-86.129zM1023.88 430.855c0 34.769-5.11 63.221-15.32 85.356-10.212 22.136-24.382 38.44-42.51 48.914-18.129 10.474-39.106 15.711-62.932 15.711h-35.295V736H807V288h90.346c39.809 0 70.849 11.77 93.122 35.309 22.272 23.539 33.412 59.388 33.412 107.546m-63.047 0.648c0-27.643-5.401-47.673-16.205-60.09-10.803-12.418-25.823-18.626-45.062-18.626h-31.743v162.29h33.519c18.055 0 32.483-6.316 43.286-18.95 10.804-12.633 16.205-34.175 16.205-64.624z" p-id="1385" fill="#515151"></path></svg>
