<svg t="1689737568141" class="icon" viewBox="0 0 1024 1024" version="1.1" xmlns="http://www.w3.org/2000/svg" p-id="1484" width="200" height="200"><path d="M885.33 331.769H138.75c-41.46 0.19-75.02 34.29-75.21 76.41v205.39c0.19 42.12 33.75 76.21 75.21 76.4H604.5c7.43 0 13.46-6.12 13.46-13.67s-6.02-13.67-13.46-13.67H138.75c-12.75 0-24.97-5.19-33.91-14.41-8.95-9.22-13.88-21.71-13.7-34.65v-205.39c-0.09-12.89 4.88-25.28 13.82-34.43 8.94-9.15 21.1-14.29 33.79-14.29h746.58c12.69 0 24.85 5.14 33.79 14.29 8.94 9.15 13.91 21.54 13.82 34.43v205.39c0 12.82-5.02 25.13-13.94 34.2-8.93 9.07-21.04 14.17-33.66 14.17H724.21c-7.41 0.37-13.28 6.48-13.45 14.02 0 7.61 5.97 13.83 13.45 14.02h161.12c41.46-0.19 75.02-34.29 75.21-76.4v-205.4c-0.19-42.12-33.75-76.22-75.21-76.41z" p-id="1485"></path><path d="M643.06 675.899c0 7.77 6.2 14.07 13.86 14.07 7.65 0 13.86-6.3 13.86-14.07 0-7.77-6.21-14.07-13.86-14.07-7.66 0-13.86 6.3-13.86 14.07zM805.8 689.969c-61.75 108.19-174.47 174.62-296.28 174.62s-234.53-66.43-296.28-174.62h-31.28c64.67 124.45 190.56 202.13 327.56 202.13s262.89-77.68 327.56-202.13H805.8z" p-id="1486"></path><path d="M321.05 661.889H214c-5.75 0.02-11.46 0.97-16.92 2.8l16.23 25.23h107.74c16.18 1.72 28.46 15.56 28.46 32.06 0 16.51-12.29 30.35-28.46 32.06H254.4l2.77 4.21 25.9 23.83h37.99c30.96-2.4 54.87-28.59 54.87-60.1-0.01-31.5-23.92-57.69-54.88-60.09z m332.21-422.23h113.27l-5.52 26.98H653.26c-16.18 1.72-28.46 15.55-28.46 32.06s12.28 30.34 28.46 32.06h66.65l-2.07 5.26-25.9 23.48h-37.98c-21.1 0-40.59-11.42-51.15-29.96-10.55-18.54-10.55-41.38 0-59.92s30.05-29.96 51.15-29.96h-0.7z" p-id="1487"></path><path d="M509.52 129.649a376.46 376.46 0 0 0-78.02 8.5c-6.39 2.16-10.32 8.76-9.3 15.6 1.02 6.84 6.7 11.92 13.42 12.01h2.41c23.49-5.21 47.46-7.82 71.49-7.79 121.67-0.15 234.35 65.95 296.28 173.81h31.28c-64.59-124.49-190.52-202.2-327.56-202.13z m-189.73 56.28c-2.44-0.01-4.83 0.73-6.87 2.12-55.06 35.35-100.2 84.89-130.95 143.72h31.28c28.28-48.52 67.26-89.51 113.77-119.65 5.17-3.3 7.63-9.69 6.04-15.73-1.59-6.04-6.84-10.3-12.91-10.46h-0.36z" p-id="1488"></path><path d="M215.82 605.539v-83.58h93.36v83.58h26.3v-186.93h-26.3v79.85h-93.36v-79.85h-26.3v186.93h26.3z m236.42 0v-163.43h62.06v-23.5H363.88v23.5h62.06v163.43h26.3z m165.68 0v-163.43h62.06v-23.5H529.56v23.5h62.06v163.43h26.3z m116.76 0v-69.97c1.05 0.18 2.67 0.36 4.87 0.53 2.19 0.18 4.47 0.31 6.84 0.4 2.37 0.09 4.65 0.18 6.84 0.27 2.19 0.09 3.81 0.13 4.87 0.13 9.99 0 19.68-1.16 29.06-3.47 9.38-2.31 17.71-5.96 24.98-10.95s13.11-11.44 17.49-19.36c4.38-7.92 6.57-17.49 6.57-28.71 0-11.93-2.41-21.67-7.23-29.24-4.82-7.57-11-13.49-18.54-17.76-7.54-4.27-15.91-7.21-25.11-8.81-9.2-1.6-18.28-2.4-27.22-2.4-8.42 0-16.96 0.31-25.64 0.93s-16.7 1.74-24.06 3.34v185.06h26.28z m21.57-91.6h-4.6c-2.02 0-4.12-0.09-6.31-0.27-2.19-0.18-4.3-0.31-6.31-0.4-2.02-0.09-3.46-0.31-4.34-0.67v-71.83c2.45-0.71 5.92-1.16 10.39-1.34s9.07-0.27 13.81-0.27c5.79 0 11.62 0.49 17.49 1.47 5.87 0.98 11.18 2.8 15.91 5.47s8.59 6.32 11.57 10.95c2.98 4.63 4.47 10.5 4.47 17.62 0 8.19-1.53 14.87-4.6 20.03-3.07 5.16-7.1 9.17-12.1 12.02-5 2.85-10.56 4.76-16.7 5.74-6.15 0.99-12.37 1.48-18.68 1.48z" p-id="1489"></path><path d="M363.38 174.419c0 7.77 6.21 14.07 13.86 14.07s13.86-6.3 13.86-14.07c0-7.77-6.2-14.07-13.86-14.07s-13.86 6.3-13.86 14.07z" p-id="1490"></path></svg>
