<svg t="1648263416933" class="icon" viewBox="0 0 1024 1024" version="1.1" xmlns="http://www.w3.org/2000/svg" p-id="10805" width="200" height="200"><path d="M402.285714 73.142857h219.428572v73.142857H402.285714z" p-id="10806"></path><path d="M790.162286 1024H233.837714C165.376 1024 109.714286 966.692571 109.714286 896.219429V200.923429C109.714286 130.450286 165.376 73.142857 233.837714 73.142857h46.372572v51.090286H233.837714c-41.106286 0-74.459429 34.450286-74.459428 76.690286v695.222857c0 42.313143 33.462857 76.653714 74.459428 76.653714h556.324572c41.106286 0 74.459429-34.450286 74.459428-76.653714V200.923429c0-42.349714-33.462857-76.690286-74.459428-76.690286h-46.372572V73.142857h46.372572C858.624 73.142857 914.285714 130.450286 914.285714 200.923429v695.222857c0.109714 70.582857-55.661714 127.853714-124.123428 127.853714z" p-id="10807"></path><path d="M300.470857 0h46.738286v189.952H300.470857V0z m384.073143 0h46.738286v189.952h-46.738286V0zM329.142857 328.923429h438.857143v52.772571H329.142857V328.923429z m0 209.225142h438.857143v52.772572H329.142857v-52.772572z m0 213.686858h289.206857V804.571429H329.142857v-52.736z" p-id="10808"></path></svg>
