<svg t="1700538790956" class="icon" viewBox="0 0 1024 1024" version="1.1" xmlns="http://www.w3.org/2000/svg" p-id="8713" width="200" height="200"><path d="M113.792 518.816a28.448 28.448 0 0 1-28.448-28.448V312.864a142.208 142.208 0 0 1 142.208-142.208h506.304a28.448 28.448 0 1 1 0 56.896H227.552a85.344 85.344 0 0 0-85.344 85.344v177.504a28.448 28.448 0 0 1-28.448 28.448z m682.656 334.528H271.936a28.448 28.448 0 1 1 0-56.896h524.512a85.344 85.344 0 0 0 85.344-85.344v-227.552a28.448 28.448 0 1 1 56.896 0v227.552a142.208 142.208 0 0 1-142.208 142.208zM773.12 227.552a28.352 28.352 0 0 1-19.904-8.544l-121.184-120.608a28.96 28.96 0 1 1 40.384-41.536l120.608 120.608a28.448 28.448 0 0 1-19.904 48.352h-0.032z m-120.608 120.608a28.416 28.416 0 0 1-19.904-48.352L753.216 179.2a28.576 28.576 0 0 1 40.416 40.416l-121.184 121.728a28.352 28.352 0 0 1-18.528 6.848l-1.44-0.032h0.064zM332.224 973.952l-1.376 0.032a28.352 28.352 0 0 1-18.56-6.88l0.032 0.032-121.184-122.304a28.576 28.576 0 0 1 40.416-40.416l120.608 120.608a28.448 28.448 0 0 1-19.904 48.352h-0.032z m-120.608-120.608a28.416 28.416 0 0 1-19.904-48.352l120.608-122.304a28.576 28.576 0 0 1 40.416 40.416l-121.184 121.728a28.416 28.416 0 0 1-19.904 8.544h-0.032z" p-id="8714"></path></svg>
