<svg t="1709111922956" class="icon" viewBox="0 0 1024 1024" version="1.1" xmlns="http://www.w3.org/2000/svg" p-id="9904" width="200" height="200"><path d="M960 900.266667l-59.733333 59.733333c-29.866667 29.866667-76.8 29.866667-102.4 0l-426.666667-426.666667c21.333333 21.333333 51.2 25.6 76.8 17.066667l379.733333 379.733333c12.8 12.8 29.866667 12.8 42.666667 0l59.733333-59.733333c12.8-12.8 12.8-29.866667 0-42.666667l-379.733333-379.733333c8.533333-25.6 4.266667-55.466667-17.066667-76.8l426.666667 426.666667c25.6 29.866667 25.6 76.8 0 102.4z" p-id="9905"></path><path d="M277.333333 810.666667c-17.066667 0-42.666667 17.066667-68.266666 38.4-21.333333 25.6-38.4 51.2-38.4 68.266666 0 12.8-8.533333 21.333333-21.333334 21.333334s-21.333333-8.533333-21.333333-21.333334c0-17.066667-17.066667-42.666667-38.4-68.266666-25.6-21.333333-51.2-38.4-68.266667-38.4-12.8 0-21.333333-8.533333-21.333333-21.333334s8.533333-21.333333 21.333333-21.333333c17.066667 0 42.666667-17.066667 68.266667-38.4 21.333333-25.6 38.4-51.2 38.4-68.266667 0-12.8 8.533333-21.333333 21.333333-21.333333s21.333333 8.533333 21.333334 21.333333c0 17.066667 17.066667 42.666667 38.4 68.266667 25.6 21.333333 51.2 38.4 68.266666 38.4 12.8 0 21.333333 8.533333 21.333334 21.333333s-8.533333 21.333333-21.333334 21.333334z m-93.866666-51.2c-12.8-12.8-25.6-25.6-34.133334-38.4-8.533333 12.8-17.066667 25.6-34.133333 38.4-12.8 12.8-25.6 21.333333-38.4 29.866666 12.8 8.533333 25.6 17.066667 38.4 29.866667 12.8 12.8 25.6 25.6 34.133333 38.4 8.533333-12.8 17.066667-25.6 34.133334-38.4 12.8-12.8 25.6-21.333333 38.4-29.866667-12.8-8.533333-25.6-17.066667-38.4-29.866666z" p-id="9906"></path><path d="M746.666667 170.666667s-25.6 8.533333-38.4 25.6c-17.066667 12.8-25.6 38.4-25.6 38.4 0 12.8-8.533333 21.333333-21.333334 21.333333s-21.333333-8.533333-21.333333-21.333333c0 0-8.533333-25.6-25.6-38.4-12.8-17.066667-38.4-25.6-38.4-25.6-12.8 0-21.333333-8.533333-21.333333-21.333334s8.533333-21.333333 21.333333-21.333333c0 0 25.6-8.533333 38.4-25.6 17.066667-12.8 25.6-38.4 25.6-38.4 0-12.8 8.533333-21.333333 21.333333-21.333333s21.333333 8.533333 21.333334 21.333333c0 0 8.533333 25.6 25.6 38.4 12.8 17.066667 38.4 25.6 38.4 25.6 12.8 0 21.333333 8.533333 21.333333 21.333333s-8.533333 21.333333-21.333333 21.333334z m-68.266667-38.4c-4.266667-4.266667-12.8-12.8-17.066667-21.333334-4.266667 8.533333-8.533333 12.8-17.066666 21.333334l-17.066667 17.066666c4.266667 4.266667 12.8 8.533333 17.066667 17.066667l17.066666 17.066667c4.266667-8.533333 8.533333-12.8 17.066667-21.333334l17.066667-17.066666c-4.266667 0-12.8-4.266667-17.066667-12.8z m-204.8 401.066666c-29.866667 29.866667-76.8 29.866667-102.4 0L149.333333 311.466667c-29.866667-29.866667-29.866667-76.8 0-102.4l59.733334-59.733334c29.866667-29.866667 76.8-29.866667 102.4 0l221.866666 221.866667c29.866667 29.866667 29.866667 76.8 0 102.4l-59.733333 59.733333z m29.866667-132.266666L281.6 179.2c-12.8-12.8-29.866667-12.8-42.666667 0L179.2 238.933333c-12.8 12.8-12.8 29.866667 0 42.666667l221.866667 221.866667c12.8 12.8 29.866667 12.8 42.666666 0l59.733334-59.733334c12.8-12.8 12.8-29.866667 0-42.666666z" p-id="9907"></path></svg>
