<svg t="1689919108949" class="icon" viewBox="0 0 1024 1024" version="1.1" xmlns="http://www.w3.org/2000/svg" p-id="6161" width="200" height="200"><path d="M0 505.135c0-0.723 0.723-2.168 0.723-2.89 3.613-18.79 13.007-33.243 29.628-42.637 7.227-4.336 15.176-5.782 23.125-6.504H961.13c20.234 0 35.41 8.672 46.973 24.57 8.671 12.285 12.285 25.293 10.84 40.469-2.891 23.124-18.79 43.359-42.637 49.14-6.504 1.445-13.008 2.168-20.234 2.168H58.535c-23.848 0-39.746-11.563-51.308-31.074-3.614-5.781-5.059-12.285-6.504-18.79 0-0.722-0.723-2.167-0.723-2.89v-11.562zM0 205.234c0-0.723 0.723-2.168 0.723-2.891 3.613-18.789 13.007-33.242 29.628-42.637 7.227-4.335 15.176-5.78 23.125-6.503H961.13c20.234 0 35.41 8.671 46.973 24.57 8.671 12.285 12.285 25.293 10.84 40.468-2.891 23.125-18.79 43.36-42.637 49.14-6.504 1.446-13.008 2.169-20.234 2.169H58.535c-23.848 0-39.746-11.563-51.308-31.074-3.614-5.782-5.059-12.285-6.504-18.79 0-1.445-0.723-2.89-0.723-3.613v-10.84zM51.308 862.848c-1.445 0-2.168-0.722-3.613-0.722-16.62-3.614-28.183-13.008-36.855-27.461-6.504-10.84-9.395-22.402-8.672-34.688 2.168-24.57 19.512-46.25 44.804-52.03 5.06-1.446 10.84-1.446 16.622-1.446h899.703c19.512 0 34.687 8.672 46.25 23.848 7.226 10.117 11.562 22.402 11.562 34.687 0 14.453-5.058 27.46-14.453 38.3-9.394 10.84-21.68 17.344-36.132 18.79-0.723 0-1.446 0-2.168 0.722H51.308zM1024 189.335c-0.723-2.168-0.723-5.058-1.445-7.226l1.445 7.226z" p-id="6162"></path></svg>
