<?xml version="1.0" standalone="no"?><!DOCTYPE svg PUBLIC "-//W3C//DTD SVG 1.1//EN" "http://www.w3.org/Graphics/SVG/1.1/DTD/svg11.dtd"><svg t="1631006472136" class="icon" viewBox="0 0 1024 1024" version="1.1" xmlns="http://www.w3.org/2000/svg" p-id="7296" width="128" height="128" xmlns:xlink="http://www.w3.org/1999/xlink"><defs><style type="text/css"></style></defs><path d="M240 800c-12.288 0-24.576-4.672-33.92-14.08-18.752-18.752-18.752-49.152 0-67.904l222.08-222.08L206.08 273.92c-18.752-18.752-18.752-49.152 0-67.904s49.152-18.752 67.904 0l256 256c18.752 18.752 18.752 49.152 0 67.904l-256 256C264.576 795.328 252.288 800 240 800z" p-id="7297" data-spm-anchor-id="a313x.7781069.0.i11" class="selected"></path><path d="M560 800c-12.288 0-24.576-4.672-33.92-14.08-18.752-18.752-18.752-49.152 0-67.904l222.08-222.08L526.08 273.92c-18.752-18.752-18.752-49.152 0-67.904s49.152-18.752 67.904 0l256 256c18.752 18.752 18.752 49.152 0 67.904l-256 256C584.576 795.328 572.288 800 560 800z" p-id="7298" data-spm-anchor-id="a313x.7781069.0.i10" class="selected"></path></svg>
