<?xml version="1.0" standalone="no"?><!DOCTYPE svg PUBLIC "-//W3C//DTD SVG 1.1//EN" "http://www.w3.org/Graphics/SVG/1.1/DTD/svg11.dtd"><svg t="1631006455214" class="icon" viewBox="0 0 1024 1024" version="1.1" xmlns="http://www.w3.org/2000/svg" p-id="6966" width="128" height="128" xmlns:xlink="http://www.w3.org/1999/xlink"><defs><style type="text/css"></style></defs><path d="M801.92 768c12.224 0 24.576-4.672 33.92-14.08 18.752-18.752 18.752-49.152 0-67.904l-222.08-222.08 222.08-222.08c18.752-18.752 18.752-49.152 0-67.904s-49.152-18.752-67.904 0l-256 256C493.248 448.832 493.248 479.168 512 497.92l256 256C777.344 763.328 789.632 768 801.92 768z" p-id="6967" data-spm-anchor-id="a313x.7781069.0.i7" class="selected"></path><path d="M481.92 768c12.288 0 24.576-4.672 33.92-14.08 18.752-18.752 18.752-49.152 0-67.904l-222.08-222.08 222.08-222.08c18.752-18.752 18.752-49.152 0-67.904S466.752 155.328 448 174.08l-256 256C173.248 448.832 173.248 479.168 192 497.92l256 256C457.344 763.328 469.632 768 481.92 768z" p-id="6968" data-spm-anchor-id="a313x.7781069.0.i8" class="selected"></path></svg>
