<svg t="1647519615861" class="icon" viewBox="0 0 1152 1024" version="1.1" xmlns="http://www.w3.org/2000/svg" p-id="25771" width="128" height="128"><path d="M810.819051 238.00937h-30.917231V182.838105c0-109.276419-85.55544-182.838105-213.22228-182.838105h-110.076002c-127.400312 0-213.22228 73.561687-213.22228 182.838105v55.171265h-24.254035c-127.400312 0-213.22228 73.561687-213.22228 182.838105v201.228527c0 61.301406 27.718896 163.914628 213.22228 163.914628h30.650703v55.171265c0 109.276419 85.821968 182.838105 213.22228 182.838105h110.076002c127.400312 0 213.22228-73.561687 213.22228-182.838105v-55.171265h24.254035c127.400312 0 213.22228-73.561687 213.22228-182.838105v-201.228527c0.266528-61.301406-27.452369-163.914628-212.955752-163.914628z m-558.375846 357.147319c-9.595003 40.778761-9.061947 45.576262-9.061947 68.497658v59.968766h-24.254035c-41.311817 0-151.121291 0-151.121291-101.813639v-201.228527c0-89.020302 78.09266-120.737116 151.121291-120.737116l238.542426-1.066111V239.608537h-151.920874V182.838105c0-89.020302 78.09266-120.737116 151.121291-120.737116h110.076002c73.028631 0 151.121291 31.716814 151.121291 120.737116V383.800104c0 6.929724-0.533056 14.392504-1.599167 21.855284-25.053618 63.966684-102.87975 71.96252-139.660594 71.962519 0 0-117.538782 0-121.536699-0.266528-10.661114-0.266528-21.0557-0.533056-34.115565 0.533056-116.47267 11.727225-159.117126 76.493493-168.712129 117.272254z m709.497137 7.729308c0 89.020302-78.09266 120.737116-151.121291 120.737116l-251.868819-0.799584v59.169183h165.247267v59.169183c0 89.020302-78.09266 120.737116-151.121291 120.737116h-110.076002c-73.028631 0-151.121291-31.716814-151.121291-120.737116v-201.228527c0-6.929724 0.533056-14.392504 1.599167-21.855284 25.053618-63.966684 102.613222-71.96252 139.660594-71.962519l134.596564 0.266528c6.663196 0 13.326393-0.266528 21.0557-0.799584 116.206143-11.460698 155.119209-70.896408 166.579907-122.069755 7.196252-20.256117 10.927642-41.844872 10.927641-63.433629V300.110359h24.254035c41.311817 0 151.121291 0 151.121291 101.813639l0.266528 200.961999z m0 0" p-id="25772"></path><path d="M355.322955 169.511713c0 18.390422 14.92556 33.582509 33.582509 33.582509 18.390422 0 33.582509-14.92556 33.582509-33.582509 0-11.993753-6.396668-22.921395-16.791255-29.051536-10.394586-5.863613-23.187923-5.863613-33.582509 0-10.394586 5.863613-16.791255 17.057782-16.791254 29.051536z m0 0M606.125662 852.356065c0 11.993753 6.396668 22.921395 16.791254 29.051535 10.394586 5.863613 23.187923 5.863613 33.582509 0 10.394586-5.863613 16.791255-17.057782 16.791255-29.051535s-6.396668-22.921395-16.791255-29.051536c-10.394586-5.863613-23.187923-5.863613-33.582509 0-10.394586 6.130141-16.791255 17.32431-16.791254 29.051536z m0 0" p-id="25773"></path></svg>
