<svg t="1648263244410" class="icon" viewBox="0 0 1024 1024" version="1.1" xmlns="http://www.w3.org/2000/svg" p-id="10671" width="200" height="200"><path d="M451.686 690H130c-36.45 0-66-29.55-66-66V150C64 113.55 93.55 84 130 84h764c36.45 0 66 29.55 66 66v474c0 36.45-29.55 66-66 66H572.314l69.519 191H701c16.569 0 30 13.431 30 30 0 16.569-13.431 30-30 30H323c-16.569 0-30-13.431-30-30 0-16.569 13.431-30 30-30h59.167l69.519-191zM512 699.716L446.018 881h131.964L512 699.716zM130 144a6 6 0 0 0-6 6v474a6 6 0 0 0 6 6h764a6 6 0 0 0 6-6V150a6 6 0 0 0-6-6H130z" p-id="10672"></path><path d="M198 198m30 0l573 0q30 0 30 30l0 0q0 30-30 30l-573 0q-30 0-30-30l0 0q0-30 30-30Z" p-id="10673"></path><path d="M198 328m30 0l573 0q30 0 30 30l0 0q0 30-30 30l-573 0q-30 0-30-30l0 0q0-30 30-30Z" p-id="10674"></path><path d="M228 458h164c16.569 0 30 13.431 30 30 0 16.569-13.431 30-30 30H228c-16.569 0-30-13.431-30-30 0-16.569 13.431-30 30-30z" p-id="10675"></path></svg>
