<svg t="1700538669206" class="icon" viewBox="0 0 1024 1024" version="1.1" xmlns="http://www.w3.org/2000/svg" p-id="8423" width="200" height="200"><path d="M281.088 153.258667a426.581333 426.581333 0 1 0 461.994667 717.482666 426.666667 426.666667 0 0 0 154.538666-175.957333l-7.509333-11.946667h-67.584c-103.936 171.690667-318.122667 229.034667-485.546667 132.352a350.122667 350.122667 0 1 1 350.122667-606.464l19.114667 11.861334c37.376 24.917333 69.546667 56.746667 94.890666 93.781333l8.533334 13.482667L715.178667 422.4l5.973333 14.250667h209.152L938.666667 428.373333V219.306667l-14.250667-5.973334-59.392 59.221334 5.888 8.618666a426.752 426.752 0 0 0-589.824-127.829333z" p-id="8424"></path></svg>
