<svg t="1648265702166" class="icon" viewBox="0 0 1303 1024" version="1.1" xmlns="http://www.w3.org/2000/svg" p-id="2058" width="200" height="200"><path d="M1263.522909 463.685818c11.357091 7.447273 17.408 20.945455 15.36 34.443637v165.98109c1.024 137.402182-104.261818 251.531636-239.616 259.723637h-921.6l53.061818 46.173091a28.578909 28.578909 0 0 1 0.093091 43.752727 37.794909 37.794909 0 0 1-25.6 8.843636L144.477091 1024a37.608727 37.608727 0 0 1-24.576-9.029818l-93.649455-83.781818A72.238545 72.238545 0 0 1 0 876.730182c0-20.573091 9.402182-40.308364 26.251636-54.737455l95.976728-83.781818a38.725818 38.725818 0 0 1 48.407272 0c13.125818 12.101818 13.125818 30.906182 0 43.008l-84.433454 72.890182h956.043636a188.322909 188.322909 0 0 0 168.494546-189.905455V498.222545a35.095273 35.095273 0 0 1 15.36-34.443636c11.357091-7.447273 26.065455-7.447273 37.422545 0zM1181.789091 8.098909l96.069818 83.781818a71.400727 71.400727 0 0 1 0 109.288728l-96.069818 83.781818a36.491636 36.491636 0 0 1-24.576 9.588363v2.141091a36.212364 36.212364 0 0 1-33.233455-19.176727 28.299636 28.299636 0 0 1 7.819637-34.164364l47.755636-41.332363H303.941818a151.458909 151.458909 0 0 0-115.991273 40.308363 161.978182 161.978182 0 0 0-51.386181 114.874182v199.959273a34.722909 34.722909 0 0 1-9.588364 24.948364 32.488727 32.488727 0 0 1-24.203636 9.960727l2.327272 0.837818a35.374545 35.374545 0 0 1-26.251636-10.146909 36.305455 36.305455 0 0 1-9.774545-24.762182V357.934545a236.078545 236.078545 0 0 1 71.68-163.560727 220.904727 220.904727 0 0 1 163.188363-62.091636h920.203637l-92.346182-77.824a29.044364 29.044364 0 0 1-0.930909-44.404364 40.401455 40.401455 0 0 1 50.920727-1.954909z" p-id="2059"></path><path d="M658.245818 418.909091H405.597091v-93.090909h252.648727v93.090909z m239.429818 146.245818H405.597091v-93.090909h492.078545v93.090909z m-79.778909 146.338909H405.597091v-93.090909h412.299636v93.090909z" p-id="2060"></path></svg>
