<svg t="1699598114185" class="icon" viewBox="0 0 1024 1024" version="1.1" xmlns="http://www.w3.org/2000/svg" p-id="7279" width="200" height="200"><path d="M921.6 559.786667c-6.826667 78.506667-64.853333 160.426667-184.32 160.426666h-81.92c-20.48 0-34.133333-13.653333-34.133333-34.133333s17.066667-34.133333 34.133333-34.133333h81.92c75.093333 0 109.226667-51.2 112.64-95.573334 3.413333-47.786667-27.306667-102.4-102.4-112.64-10.24 0-17.066667-6.826667-23.893333-13.653333-6.826667-10.24-10.24-20.48-6.826667-30.72 10.24-40.96 0-75.093333-27.306667-88.746667-23.893333-13.653333-61.44-13.653333-92.16 17.066667-6.826667 6.826667-20.48 10.24-30.72 10.24-10.24-3.413333-20.48-10.24-27.306666-17.066667-51.2-95.573333-129.706667-102.4-184.32-78.506666-47.786667 20.48-88.746667 81.92-58.026667 157.013333 3.413333 10.24 3.413333 20.48 0 27.306667-3.413333 10.24-13.653333 17.066667-20.48 20.48-105.813333 34.133333-102.4 102.4-102.4 126.293333 6.826667 37.546667 37.546667 78.506667 85.333333 78.506667h112.64c20.48 0 34.133333 17.066667 34.133334 37.546666 0 20.48-17.066667 37.546667-34.133334 37.546667l-109.226666-3.413333c-78.506667 0-143.36-61.44-157.013334-139.946667-10.24-61.44 17.066667-146.773333 116.053334-191.146667-23.893333-98.986667 30.72-180.906667 105.813333-218.453333 75.093333-37.546667 184.32-27.306667 256 71.68 44.373333-23.893333 95.573333-27.306667 139.946667-3.413333 37.546667 20.48 71.68 64.853333 68.266666 133.12 95.573333 30.72 133.12 116.053333 129.706667 184.32z m-283.306667 30.72c6.826667 6.826667 17.066667 10.24 23.893334 10.24 10.24 0 17.066667-3.413333 23.893333-10.24 13.653333-13.653333 13.653333-37.546667 0-51.2l-150.186667-150.186667c-6.826667-6.826667-17.066667-10.24-23.893333-10.24-10.24 0-17.066667 3.413333-23.893333 10.24l-150.186667 150.186667c-13.653333 13.653333-13.653333 37.546667 0 51.2 13.653333 13.653333 37.546667 13.653333 51.2 0l88.746667-88.746667v334.506667c0 20.48 17.066667 34.133333 34.133333 34.133333 20.48 0 34.133333-17.066667 34.133333-34.133333v-331.093334l92.16 85.333334z" p-id="7280"></path></svg>
