<svg t="1707119107325" class="icon" viewBox="0 0 1024 1024" version="1.1" xmlns="http://www.w3.org/2000/svg" p-id="8859" width="200" height="200"><path d="M521.162105 0L79.225263 253.305263v512l441.936842 253.305263 291.031579-172.463158v-64.673684l-291.031579 172.463158-382.652631-220.968421V291.031579l382.652631-226.357895 382.652632 226.357895v296.421053h59.28421V253.305263z" p-id="8860"></path><path d="M355.004632 349.992421c-5.389474-10.778947-21.557895-10.778947-26.947369 0l-150.905263 145.51579c-10.778947 10.778947-10.778947 21.557895 0 32.336842l150.905263 145.515789c5.389474 5.389474 10.778947 5.389474 16.168421 5.389474 5.389474 0 10.778947 0 16.168421-5.389474 10.778947-10.778947 10.778947-21.557895 0-32.336842l-140.126316-129.347368 134.736843-129.347369c10.778947-10.778947 10.778947-26.947368 0-32.336842zM867.004632 495.508211l-150.905264-145.51579c-5.389474-10.778947-21.557895-10.778947-32.336842 0-10.778947 10.778947-10.778947 21.557895 0 32.336842l134.736842 129.347369-134.736842 129.347368c-5.389474 10.778947-5.389474 21.557895 0 32.336842 5.389474 5.389474 10.778947 5.389474 16.168421 5.389474 5.389474 0 10.778947 0 16.168421-5.389474l150.905264-145.515789c5.389474-10.778947 5.389474-21.557895 0-32.336842zM597.530947 301.487158c-10.778947-5.389474-21.557895 0-26.947368 10.778947l-140.126316 377.263158c0 10.778947 5.389474 26.947368 16.168421 26.947369 10.778947 5.389474 21.557895 0 26.947369-10.778948l140.126315-377.263158c0-10.778947-5.389474-21.557895-16.168421-26.947368z" p-id="8861"></path></svg>
