<svg t="1708483941644" class="icon" viewBox="0 0 1024 1024" version="1.1" xmlns="http://www.w3.org/2000/svg" p-id="9169" width="200" height="200"><path d="M787.4 918H238.8c-72 0-130.6-58.6-130.6-130.6V238.8c0-72 58.6-130.6 130.6-130.6h548.6c72 0 130.6 58.6 130.6 130.6v548.6c0 72-58.6 130.6-130.6 130.6zM238.8 168.2c-38.9 0-70.6 31.7-70.6 70.6v548.6c0 38.9 31.7 70.6 70.6 70.6h548.6c38.9 0 70.6-31.7 70.6-70.6V238.8c0-38.9-31.7-70.6-70.6-70.6H238.8z" p-id="9170"></path><path d="M451.1 728.8c-3.1 0-6.3-0.5-9.5-1.5-15.7-5.2-24.2-22.2-19-38l128-383.9c5.2-15.7 22.2-24.2 38-19 15.7 5.2 24.2 22.2 19 38l-128 383.9c-4.2 12.5-15.9 20.5-28.5 20.5zM643.1 661.9c-8.3 0-16.5-3.4-22.4-10.1-11-12.4-9.9-31.3 2.5-42.4l105.6-94-107.5-113c-11.4-12-10.9-31 1.1-42.4 12-11.4 31-10.9 42.4 1.1l128.8 135.6c5.6 5.9 8.6 13.8 8.2 21.9-0.3 8.1-4 15.7-10 21.2L663 654.3c-5.7 5.1-12.8 7.6-19.9 7.6zM385.9 661.9c-7.1 0-14.2-2.5-19.9-7.6L237.2 539.7c-6.1-5.4-9.7-13-10-21.2-0.3-8.1 2.6-16 8.2-21.9L364.2 361c11.4-12 30.4-12.5 42.4-1.1s12.5 30.4 1.1 42.4L300.2 515.5l105.6 94c12.4 11 13.5 30 2.5 42.4-5.9 6.6-14.2 10-22.4 10z" p-id="9171"></path></svg>
