<svg t="1698228989436" class="icon" viewBox="0 0 2048 1024" version="1.1" xmlns="http://www.w3.org/2000/svg" p-id="6938" width="200" height="200"><path d="M564.37616 863.628v-85.96l32.244 0.284c8.236 54.488 45.64 71.86 83.68 72.16 38.84 0 75.508-19.952 75.508-78.992 0-59.04-68.688-79.08-106.852-101.12s-82.156-51.348-82.156-116.416 65.752-102.048 115.432-105.696 60.864-0.144 121.976 13.176v83.36h-32.688c-9.96-49.04-41.232-67.972-77.344-67.972-36.112 0-68.628 23.432-69.8 66.704s25.616 59.384 80.388 91.008c54.776 31.624 106.992 51.56 106.84 130.128-2.776 82.6-61.484 115.596-127.672 115.596-47.348 0-79.1-5.42-119.556-16.26m356.24-132.668c7.024 49.38 31.952 110.548 96.144 110.428s97.544-53.628 105.784-67.9l26.28 19.824c-15.76 31.84-65.848 95.008-150.996 95.008s-143.86-78.844-143.86-193.736c0-56.908 42.2-148.16 146.008-148.16s121.76 105.072 131.18 137.968l-210.544 46.568z m139.724-62.256c-11.644-34.744-30.768-97.776-88.032-89.204s-63.8 76.856-57.852 121.212l145.884-32.008z m203.824 147.32c0 39.416 23.204 39.48 35.008 42.64v16.636h-123.412v-16.64c9.336-3.568 35.42-2.432 35.42-42.636v-326.792c-0.724-16.176-3.16-35.104-41.496-35.104v-23.268h94.48m288.628 59.588h-33.184c-1.792-3.1-3.892-31.764-36.456-31.332-32.568 0.432-44.052 30.296-44.052 75.396v43.412h72.032v32.832h-72.032v205.268c0 38.012 21.496 40.216 35.484 42.64v16.636H1348.51216v-16.64c14.236-3.812 34.58-4.552 34.58-42.636V610.76h-36.06v-16.14c49.684-7.908 23.9-19.912 44.568-86.016s77.9-77.74 118.948-77.74 42.24 2.196 42.24 2.196v57.388M327.91216 759.2l-37.68-57.128 241.888 83.872-213.932 144.644 24.308-68.068c-825.412-39.632-6.064-569 846.924-720.14s1202.744 62.656 429.58 435.144l27.752-69.936-66.72-26.668c732.8-388.708 2.432-422.816-620.92-262.224S-199.10384 710.708 327.91216 759.196z" p-id="6939"></path></svg>
