<svg t="1647519685812" class="icon" viewBox="0 0 1489 1024" version="1.1" xmlns="http://www.w3.org/2000/svg" p-id="1700" width="128" height="128"><path d="M837.818182 465.454545a46.545455 46.545455 0 0 1 5.445818 92.765091L837.818182 558.545455H46.545455a46.545455 46.545455 0 0 1-5.445819-92.765091L46.545455 465.454545h791.272727zM1442.909091 232.727273a46.545455 46.545455 0 0 1 5.445818 92.765091L1442.909091 325.818182H46.545455a46.545455 46.545455 0 0 1-5.445819-92.765091L46.545455 232.727273h1396.363636zM1442.909091 0a46.545455 46.545455 0 0 1 5.445818 92.765091L1442.909091 93.090909H46.545455A46.545455 46.545455 0 0 1 41.099636 0.325818L46.545455 0h1396.363636zM372.363636 930.909091a46.545455 46.545455 0 0 1 5.445819 92.765091L372.363636 1024H46.545455a46.545455 46.545455 0 0 1-5.445819-92.765091L46.545455 930.909091h325.818181zM1210.181818 698.181818a46.545455 46.545455 0 0 1 5.445818 92.765091L1210.181818 791.272727H46.545455a46.545455 46.545455 0 0 1-5.445819-92.765091L46.545455 698.181818h1163.636363z" p-id="1701"></path></svg>
