<svg t="1649410869146" class="icon" viewBox="0 0 1024 1024" version="1.1" xmlns="http://www.w3.org/2000/svg" p-id="27337" width="128" height="128"><path d="M508 803.9c-14.6-8-33.5-14.6-56.9-19.7-29.9-6.6-44.1-16.4-42.7-29.5 1.5-14.6 12.7-22.2 33.9-23 26.2 0 41.2 11.7 44.8 35l53.6-9.8c-9.5-46.7-43-69.3-100.6-67.8-54.7 2.9-84.2 24.4-88.6 64.5-1.5 37.2 20 60.5 64.5 70 13.8 2.2 29.9 6.6 48.1 13.1 17.5 7.3 25.9 17.5 25.2 30.6-1.5 19-14.2 28.8-38.3 29.5-32.1 0-50.3-16.8-54.7-50.3l-53.6 10.9c11.7 54 48.1 80.6 109.4 79.8 61.2-1.5 93-25.5 95.2-72.2-0.7-26.1-13.8-46.5-39.3-61.1zM805.5 813.8C800.4 735 761 693.4 687.4 689.1c-77.3 3.7-117.8 45.2-121.4 124.7 2.9 70.7 37.9 111.6 105 122.5l52.5 67.8 60.2-17.5-56.9-54.7c51-18.3 77.2-57.6 78.7-118.1z m-120.3 78.7c-40.1-2.9-60.9-29.2-62.3-78.8 2.2-49.6 23-75.8 62.3-78.8 39.4 2.2 59.8 28.4 61.2 78.8-1.4 51.1-21.8 77.3-61.2 78.8zM888.6 890.3v-198h-54.7V933h178.3v-42.7z" p-id="27338"></path><path d="M132 622V479.4c68.8 37.7 186.4 62.6 320 62.6s251.2-24.9 320-62.6V614h64V172c0-77.3-171.9-140-384-140S68 94.7 68 172v680c0.3 56.1 91.1 104.4 222 126.7v-49.3c-94.5-15.6-158-44.5-158-77.6V699.5c39 21.4 93.6 38.6 158 49.6v-49.3C195.5 684 132 655.1 132 622z m320-130c-176.7 0-320-40.3-320-90V249.4c68.8 37.7 186.4 62.6 320 62.6s251.2-24.9 320-62.6V402c0 49.7-143.3 90-320 90z m0-410c176.7 0 320 40.3 320 90s-143.3 90-320 90-320-40.3-320-90 143.3-90 320-90z" p-id="27339"></path></svg>
