<svg t="1708484760982" class="icon" viewBox="0 0 1024 1024" version="1.1" xmlns="http://www.w3.org/2000/svg" p-id="9660" width="200" height="200"><path d="M806.613333 129.109333c72.106667 0 130.432 57.344 130.432 128.213334v157.44c0 34.816 28.586667 64.085333 65.237334 64.085333H1024v68.565333h-21.76c-37.717333-1.109333-66.346667 28.117333-66.346667 62.976v157.44c0 70.826667-58.325333 128.170667-130.432 128.170667h-42.325333v-85.461333h43.477333a43.093333 43.093333 0 0 0 43.477334-42.709334V593.493333c0-37.12 24.021333-69.717333 59.477333-80.981333a84.906667 84.906667 0 0 1-59.477333-80.938667V257.28a43.093333 43.093333 0 0 0-43.477334-42.752h-43.477333V129.109333h43.477333zM259.712 128v85.461333H216.234667A43.093333 43.093333 0 0 0 172.8 256.170667v174.293333a84.906667 84.906667 0 0 1-59.477333 80.981333 84.906667 84.906667 0 0 1 59.477333 80.938667v174.293333a43.093333 43.093333 0 0 0 43.52 42.752h43.434667v85.461334H216.234667a127.36 127.36 0 0 1-129.28-127.061334v-157.44c0-34.858667-28.586667-64.085333-65.237334-64.085333H0v-68.608h21.76c35.413333 0 65.194667-28.117333 65.194667-64.085333v-157.44C86.954667 185.344 145.322667 128 217.386667 128h42.325333z" p-id="9661"></path><path d="M715.52 298.666667c5.376 0 9.813333 4.565333 9.813333 10.154666a11.093333 11.093333 0 0 1-0.981333 4.608l-1.237333 1.962667L563.072 512l159.786667 196.48a10.752 10.752 0 0 1 2.346666 6.570667 10.026667 10.026667 0 0 1-7.253333 9.813333l-2.56 0.341333-81.237333-0.384L512 574.634667l-122.154667 150.314666L308.48 725.333333A10.026667 10.026667 0 0 1 298.666667 715.178667c0-1.578667 0.384-3.157333 1.066666-4.565334l1.28-2.005333 160.042667-196.48-160.042667-196.608A10.752 10.752 0 0 1 298.666667 308.949333c0-4.778667 3.072-8.661333 7.253333-9.813333l2.56-0.341333 81.365333 0.384L512 449.365333l122.282667-150.314666L715.52 298.666667z" p-id="9662"></path></svg>
