<svg t="1700538533891" class="icon" viewBox="0 0 1024 1024" version="1.1" xmlns="http://www.w3.org/2000/svg" p-id="8132" width="200" height="200"><path d="M914.285714 438.857143a36.571429 36.571429 0 0 1 36.571429 36.571428v438.857143a36.571429 36.571429 0 0 1-29.988572 35.986286L914.285714 950.857143H196.608l10.459429 10.678857a36.571429 36.571429 0 0 1-0.292572 51.346286l-0.292571 0.365714a36.132571 36.132571 0 0 1-51.126857 0l-0.292572-0.365714-69.485714-71.094857A36.571429 36.571429 0 0 1 109.714286 877.714286H877.714286V475.428571a36.571429 36.571429 0 0 1 36.571428-36.571428zM867.986286 11.556571l69.705143 69.851429 1.097142 1.170286A36.498286 36.498286 0 0 1 914.285714 146.285714H146.285714v402.285715a36.571429 36.571429 0 0 1-73.142857 0v-438.857143a36.571429 36.571429 0 0 1 36.571429-36.571429h716.434285L816.274286 63.195429a36.571429 36.571429 0 0 1 0-51.712h0.073143a36.571429 36.571429 0 0 1 51.638857 0z" p-id="8133"></path><path d="M695.442286 292.571429l6.582857 0.731428a36.571429 36.571429 0 0 1 29.403428 36.425143l-0.731428 6.582857-73.142857 365.714286c-6.948571 35.035429-53.540571 39.350857-68.315429 9.728l-2.56-6.363429L512 456.118857 437.028571 705.389714c-10.24 34.230857-57.051429 34.157714-68.973714 3.145143l-1.901714-6.582857-71.972572-365.714286a36.571429 36.571429 0 0 1 69.924572-20.48l1.828571 6.290286 43.52 221.110857 67.510857-224.548571c9.728-32.402286 53.248-34.596571 67.510858-6.436572l2.56 6.436572 67.510857 225.28 44.470857-221.915429a36.571429 36.571429 0 0 1 29.988571-28.964571L695.515429 292.571429z" p-id="8134"></path></svg>
