<svg t="1648264699588" class="icon" viewBox="0 0 1024 1024" version="1.1" xmlns="http://www.w3.org/2000/svg" p-id="34842" width="200" height="200"><path d="M914.285714 914.285714H182.857143v109.714286l-182.857143-182.857143h896a54.857143 54.857143 0 0 0 54.857143-54.857143V475.428571h73.142857v329.142858a109.714286 109.714286 0 0 1-109.714286 109.714285z m-531.090285-264.484571h1.974857a260.754286 260.754286 0 0 1 8.850285-51.2l82.285715-298.569143h100.315428l74.861715 302.262857a310.857143 310.857143 0 0 1 7.314285 46.884572h1.426286a273.810286 273.810286 0 0 1 6.582857-48.566858l64.256-300.580571h95.451429l-118.016 442.514286h-104.850286l-75.446857-288.548572a241.371429 241.371429 0 0 1-7.314286-48.859428h-0.841143a304.786286 304.786286 0 0 1-8.009143 48.859428l-77.129142 288.548572H326.034286l-117.979429-442.514286h103.424l65.828572 299.885714a332.141714 332.141714 0 0 1 5.888 49.883429zM841.142857 182.857143H128A54.857143 54.857143 0 0 0 73.142857 237.714286V548.571429H0V219.428571a109.714286 109.714286 0 0 1 109.714286-109.714285h731.428571V0l182.857143 182.857143h-182.857143z" p-id="34843"></path></svg>
