<svg t="1649858628755" class="icon" viewBox="0 0 1024 1024" version="1.1" xmlns="http://www.w3.org/2000/svg" p-id="2240" width="200" height="200"><path d="M700.672 442.816c164.736 0 256.128 79.552 256.128 228.416 0 144.96-86.656 224.192-243.264 228.224l-12.864 0.192-27.136-0.064v30.08a24 24 0 0 1-34.304 21.696l-4.032-2.56-96-71.936a24 24 0 0 1-3.84-34.88l3.84-3.52 96-72a24 24 0 0 1 37.952 14.4l0.448 4.8-0.064 29.952h27.136c120.704 0 172.16-44.672 172.16-144.384 0-96.512-48.192-141.504-160.64-144.32l-11.52-0.128H128V442.816h572.672z m-233.792 372.864v83.968H128v-84.032h338.88zM945.92 64v84.032H128V64h817.92z" p-id="2241"></path></svg>
