<svg t="1700547258241" class="icon" viewBox="0 0 1185 1024" version="1.1" xmlns="http://www.w3.org/2000/svg" p-id="9003" width="200" height="200"><path d="M53.894737 540.213895V102.588632C53.894737 75.695158 75.695158 53.894737 102.588632 53.894737h788.749473a26.947368 26.947368 0 0 0 0-53.894737H102.588632A102.588632 102.588632 0 0 0 0 102.588632v437.625263a26.947368 26.947368 0 0 0 53.894737 0zM1105.946947 285.399579v628.547368c0 26.893474-21.800421 48.693895-48.693894 48.693895H102.615579a48.693895 48.693895 0 0 1-48.693895-48.693895 26.947368 26.947368 0 0 0-53.894737 0 102.588632 102.588632 0 0 0 102.588632 102.588632h954.637474a102.588632 102.588632 0 0 0 102.588631-102.588632V285.399579a26.947368 26.947368 0 0 0-53.894737 0z" p-id="9004"></path><path d="M187.742316 685.702737l133.335579-347.216842h49.502316l142.093473 347.216842h-52.331789l-40.501895-105.148632h-145.192421l-38.130526 105.148632h-48.774737z m100.163368-142.578526h117.733053l-36.244211-96.148211c-11.048421-29.210947-19.267368-53.221053-24.629894-72.003368a442.610526 442.610526 0 0 1-18.728421 66.290526l-38.130527 101.861053z m261.497263 142.578526V338.485895h130.964211c23.04 0 40.663579 1.104842 52.816842 3.314526 17.057684 2.856421 31.339789 8.245895 42.846316 16.222316 11.533474 7.976421 20.830316 19.132632 27.836631 33.522526 7.033263 14.362947 10.536421 30.181053 10.536421 47.373474 0 29.534316-9.377684 54.514526-28.16 74.967579-18.809263 20.426105-52.736 30.666105-101.861052 30.666105h-89.034105v141.150316h-45.945264z m45.945264-182.137263h89.734736c29.696 0 50.768842-5.524211 63.245474-16.572632 12.476632-11.048421 18.728421-26.597053 18.728421-46.645895 0-14.551579-3.691789-26.974316-11.021474-37.322105a51.469474 51.469474 0 0 0-29.022315-20.48c-7.733895-2.048-22.016-3.072-42.846316-3.072h-88.818526v124.092632z m285.372631 182.137263V338.485895h45.972211v347.216842h-45.972211z" p-id="9005"></path></svg>
