<svg t="1699499133349" class="icon" viewBox="0 0 1024 1024" version="1.1" xmlns="http://www.w3.org/2000/svg" p-id="7279" width="200" height="200"><path d="M259.52 32.32c-125.12 0-227.2 102.08-227.2 227.2 0 124.48 100.8 225.92 224.96 227.2h164.48c35.84 0 64.96-29.12 64.96-64.96v-160-2.24c0-125.12-102.08-227.2-227.2-227.2z m160 229.12v139.2c0 10.24-8.32 18.88-18.88 18.88H257.6a160.064 160.064 0 0 1-158.08-160c0-88.32 71.68-160 160-160s160 71.68 160 160v1.92zM421.44 537.6H256.96C132.8 538.88 32 640.32 32 764.8 32 889.92 134.08 992 259.2 992c125.12 0 227.2-102.08 227.2-227.2v-162.56c0-35.52-29.12-64.64-64.96-64.64z m-2.24 225.28v1.92c0 88.32-71.68 160-160 160s-160-71.68-160-160c0-87.68 70.72-159.04 158.08-160h143.04c10.24 0 18.88 8.32 18.88 18.88v139.2zM602.56 486.4h164.48C891.2 485.12 992 384 992 259.2 992 134.08 889.92 32 764.8 32c-125.12 0-227.2 102.08-227.2 227.2v162.24c0 35.84 29.12 64.96 64.96 64.96z m2.24-225.28V259.2c0-88.32 71.68-160 160-160s160 71.68 160 160c0 87.68-70.72 159.04-158.08 160h-143.04c-10.24 0-18.88-8.32-18.88-18.88V261.12zM767.04 537.92h-164.48c-35.84 0-64.96 29.12-64.96 64.96v162.24c0 125.12 102.08 227.2 227.2 227.2s227.2-102.4 227.2-227.52c0-124.48-100.8-225.92-224.96-226.88zM764.8 924.8c-88.32 0-160-71.68-160-160V623.68c0-10.24 8.32-18.88 18.88-18.88h143.04c87.36 0.96 158.08 72.32 158.08 160 0 88.32-71.68 160-160 160z" p-id="7280"></path></svg>
