<svg t="1706865356769" class="icon" viewBox="0 0 1024 1024" version="1.1" xmlns="http://www.w3.org/2000/svg" p-id="8859" width="200" height="200"><path d="M798.72 817.152c-57.344-10.24-102.4-59.392-102.4-120.832 0-67.584 55.296-122.88 122.88-122.88s122.88 55.296 122.88 122.88c0 61.44-45.056 110.592-102.4 120.832v114.688c0 12.288-8.192 20.48-20.48 20.48s-20.48-8.192-20.48-20.48v-114.688z m-614.4 0c-57.344-10.24-102.4-59.392-102.4-120.832 0-67.584 55.296-122.88 122.88-122.88s122.88 55.296 122.88 122.88c0 61.44-45.056 110.592-102.4 120.832v114.688c0 12.288-8.192 20.48-20.48 20.48s-20.48-8.192-20.48-20.48v-114.688z m307.2-610.304c-57.344 10.24-102.4 59.392-102.4 120.832 0 67.584 55.296 122.88 122.88 122.88s122.88-55.296 122.88-122.88c0-61.44-45.056-110.592-102.4-120.832v-114.688c0-12.288-8.192-20.48-20.48-20.48s-20.48 8.192-20.48 20.48v114.688z m-307.2-114.688c0-12.288 8.192-20.48 20.48-20.48s20.48 8.192 20.48 20.48v409.6c0 12.288-8.192 20.48-20.48 20.48s-20.48-8.192-20.48-20.48v-409.6z m614.4 0c0-12.288 8.192-20.48 20.48-20.48s20.48 8.192 20.48 20.48v409.6c0 12.288-8.192 20.48-20.48 20.48s-20.48-8.192-20.48-20.48v-409.6z m-286.72 317.44c-45.056 0-81.92-36.864-81.92-81.92s36.864-81.92 81.92-81.92 81.92 36.864 81.92 81.92-36.864 81.92-81.92 81.92z m-20.48 112.64c0-12.288 8.192-20.48 20.48-20.48s20.48 8.192 20.48 20.48v409.6c0 12.288-8.192 20.48-20.48 20.48s-20.48-8.192-20.48-20.48v-409.6z m-286.72 256c45.056 0 81.92-36.864 81.92-81.92s-36.864-81.92-81.92-81.92-81.92 36.864-81.92 81.92 36.864 81.92 81.92 81.92z m614.4 0c45.056 0 81.92-36.864 81.92-81.92s-36.864-81.92-81.92-81.92-81.92 36.864-81.92 81.92 36.864 81.92 81.92 81.92z" p-id="8860"></path></svg>
