<svg t="1650810908607" class="icon" viewBox="0 0 1024 1024" version="1.1" xmlns="http://www.w3.org/2000/svg" p-id="10147" width="200" height="200"><path d="M301.787429 1024a37.741714 37.741714 0 0 1-37.741715-37.741714 377.124571 377.124571 0 0 1 233.325715-348.745143 263.314286 263.314286 0 1 1 285.769142-1.170286l1.097143 0.438857h0.658286a262.290286 262.290286 0 0 1-126.610286 42.934857v5.046858c-5.266286 0-10.898286-0.438857-16.822857-0.438858a302.372571 302.372571 0 0 0-302.08 302.006858 37.741714 37.741714 0 0 1-37.595428 37.668571z m337.554285-796.233143a188.050286 188.050286 0 0 0-133.046857 320.804572 188.050286 188.050286 0 1 0 133.046857-320.804572z m-601.673143 643.657143a37.668571 37.668571 0 0 1-37.668571-37.595429 377.417143 377.417143 0 0 1 232.96-348.745142 263.314286 263.314286 0 1 1 335.506286-400.603429 334.628571 334.628571 0 0 0-80.457143 28.233143 186.733714 186.733714 0 0 0-112.786286-37.376 188.050286 188.050286 0 0 0-74.020571 360.96 338.944 338.944 0 0 0 21.942857 100.498286 301.860571 301.860571 0 0 0-247.808 297.033142 37.668571 37.668571 0 0 1-37.668572 37.741715z" p-id="10148"></path><path d="M731.428571 804.571429m36.571429 0l219.428571 0q36.571429 0 36.571429 36.571428l0 0q0 36.571429-36.571429 36.571429l-219.428571 0q-36.571429 0-36.571429-36.571429l0 0q0-36.571429 36.571429-36.571428Z" p-id="10149"></path><path d="M731.428571 950.857143m36.571429 0l219.428571 0q36.571429 0 36.571429 36.571428l0 0q0 36.571429-36.571429 36.571429l-219.428571 0q-36.571429 0-36.571429-36.571429l0 0q0-36.571429 36.571429-36.571428Z" p-id="10150"></path></svg>
