<svg t="1713339224486" class="icon" viewBox="0 0 1192 1024" version="1.1" xmlns="http://www.w3.org/2000/svg" p-id="10276" width="200" height="200"><path d="M280.316528 1023.999829a51.371229 51.371229 0 0 1-24.829427-6.335785 51.371229 51.371229 0 0 1-26.199327-51.371229l19.521067-152.401312h-85.618714A162.675558 162.675558 0 0 1 0.000856 650.702232V162.504321A162.675558 162.675558 0 0 1 162.505177 0h867.660055a162.675558 162.675558 0 0 1 162.504321 162.504321V650.702232a162.675558 162.675558 0 0 1-162.504321 162.504321H553.782703L313.022877 1012.355684a51.371229 51.371229 0 0 1-32.706349 11.644145zM162.505177 102.742458A59.9331 59.9331 0 0 0 102.743314 162.504321V650.702232a59.9331 59.9331 0 0 0 59.761863 59.761863h144.695628a51.371229 51.371229 0 0 1 51.371229 57.878251l-10.445484 81.680254 154.113687-127.743122a51.371229 51.371229 0 0 1 32.706349-11.815383h494.876172A59.761863 59.761863 0 0 0 1089.927095 650.702232V162.504321A59.761863 59.761863 0 0 0 1030.165232 102.742458z" p-id="10277"></path><path d="M796.597378 343.844759H253.261015a51.371229 51.371229 0 1 1 0-102.742458h543.336363a51.371229 51.371229 0 1 1 0 102.742458zM589.228851 545.048738H253.261015a51.371229 51.371229 0 0 1 0-102.742457h335.967836a51.371229 51.371229 0 0 1 0 102.742457z" p-id="10278"></path></svg>
