<svg t="1681896349165" class="icon" viewBox="0 0 1024 1024" version="1.1" xmlns="http://www.w3.org/2000/svg" p-id="16538" width="200" height="200"><path d="M294.008608 387.512056c-17.14978 0-31.13719 13.987409-31.13719 31.13719 0 17.14978 13.987409 31.13719 31.13719 31.137189 16.541632 0 32.353486 6.568001 44.029932 18.244448 11.676446 11.676446 18.244447 27.4883 18.244447 44.029932 0 17.14978 13.987409 31.13719 31.13719 31.13719 17.14978 0 31.13719-13.987409 31.13719-31.13719 0-33.083264-13.136002-64.706972-36.488894-88.059865-23.352892-23.352892-54.976601-36.488894-88.059865-36.488894z m0 0" p-id="16539"></path><path d="M823.340833 636.609574c-76.869937 0-142.793206 46.340896-171.497803 112.629053l-116.886091-95.236014c48.651859-81.248604 52.422378-181.836323 9.973631-266.490557l94.749495-59.112008c53.517045 80.518826 156.537356 111.899275 245.813517 74.923862 89.397791-36.975413 140.117354-131.968167 121.143129-226.717662-18.730966-94.871125-102.168904-162.983727-198.864473-162.740468-63.490676 0-123.210833 29.920893-161.402542 80.518826-38.191709 50.719563-50.476304 116.399572-32.961634 177.457656l-101.317497 63.733935c-73.099418-90.978976-194.972325-127.102981-305.898562-90.614087-110.926238 36.488894-187.552916 137.80639-192.539732 254.449222-4.865186 116.642832 63.004157 224.04181 170.403136 269.774557 107.398979 45.611118 231.947737 19.947262 312.466564-64.585343l140.238983 112.142535c-0.12163 2.310963-0.12163 4.500297-0.12163 6.81126 0 103.141941 83.681197 186.823138 186.823138 186.823139S1010.163971 926.574653 1010.163971 823.432712c0-49.503266-19.704003-97.060458-54.733341-132.089797-35.029338-35.029338-82.464901-54.733341-132.089797-54.733341z m-114.575128-519.358594c40.016154-40.016154 100.344459-52.057489 152.645207-30.407412 52.300748 21.650077 86.478679 72.734529 86.478679 129.413945 0 77.356456-62.760898 140.117354-140.117353 140.117353-56.679416 0-107.763867-34.177931-129.413945-86.478679-21.650077-52.422378-9.730372-112.629053 30.407412-152.645207z m-414.757097 612.770163c-120.413351 0-217.960328-97.546977-217.960328-217.960328 0-120.413351 97.546977-217.960328 217.960328-217.960328S511.968936 391.647464 511.968936 512.060815c0 120.413351-97.546977 217.960328-217.960328 217.960328z m617.392089 181.471433c-23.352892 23.352892-54.976601 36.488894-88.059864 36.488894-68.84238 0-124.548759-55.706378-124.548759-124.548758 0-68.84238 55.706378-124.548759 124.548759-124.548759S947.889591 754.711961 947.889591 823.432712c0 33.083264-13.136002 64.706972-36.488894 88.059864z" p-id="16540"></path></svg>
