<svg t="1652690189301" class="icon" viewBox="0 0 1024 1024" version="1.1" xmlns="http://www.w3.org/2000/svg" p-id="2892" width="200" height="200"><path d="M68 258.1c16.8-7.5 27.5-24.1 27.3-42.5 1.1-40 16.7-71 47.7-94.6 20.3-15.4 43.8-23.2 72.1-23.6h0.1c23.2-0.6 42.3-17.7 45.5-40.7 3.2-21.6-9.3-42.9-29.7-50.7-5.2-2-10.3-2.7-14.8-3.4-1.7-0.3-3.4-0.5-4.9-0.8l-1.8-0.3-1.8 0.1C165.5 4 128 16.1 96.4 37.5 34.7 79.3 2.3 138.3 0.1 213.2c-0.9 15.7 6.5 31 19.4 40.1 8.2 6.4 18.2 9.6 28.2 9.6 6.9 0 13.9-1.6 20.3-4.8zM560.2 493.4l-0.4-0.3c-0.2-0.2-0.3-0.4-0.3-0.6v-0.6c0.1-36.4 0.1-73.4 0.1-109.2v-65.2c0.4-11.9-3.3-23.5-10.6-32.9l-0.2-0.2c-12.6-15.5-33.7-21.5-52.5-15.1-19.5 6.6-32.4 24.8-32.1 45.3-0.1 23.5-0.1 47.3-0.1 70.4v54.3c0.1 22.1 0.1 44.9-0.2 67.3-0.6 16.6 6 32.6 18.1 43.9 25.7 25.2 51.7 51.2 76.8 76.2l25.6 25.6c2.3 2.3 4.6 4.7 6.9 7 6.5 6.6 13.2 13.3 20.1 19.8 9.2 8.9 21.1 13.3 32.9 13.3 11 0 22.1-3.9 31.1-11.7 10.1-8.7 16-20.6 16.5-33.7 0.5-13.8-4.9-27-15.2-37.4-38.4-38.7-77.7-77.8-116.5-116.2z" p-id="2893"></path><path d="M858.7 183.5c-43.9-45.9-95.6-82-153.5-107.5-56-24.6-115.4-38.2-176.8-40.4-61.4-2.2-121.5 7-178.8 27.5-59.3 21.2-113 53.6-159.5 96.3C90.6 250.8 38 364.1 33.8 496c-2.3 75 10.9 145.3 39.5 209.1 25.9 57.9 65 111.8 116.3 160.3-9.6 9.6-19.3 19.2-28.9 28.8-15 15-30.6 30.5-45.9 45.6-13.9 13.8-18.5 31.2-13.1 49 4.9 16.1 18.1 28.5 34.5 32.4 3.6 0.9 7.3 1.3 10.9 1.3 12.8 0 25.2-5.1 34.3-14.5 20.4-20 40.9-40.6 60.8-60.4l24.5-24.5c81.3 44.2 163.6 66.6 244.9 66.6h0.5c81.1-0.1 163.5-22.5 245.1-66.7 15.2 15.2 30.5 30.5 45.4 45.3 12.9 12.9 25.9 25.8 38.8 38.7 13.4 13.4 29.7 18.2 47 13.8 16.7-4.1 29.9-17 34.4-33.7 4.5-16.6-0.4-34.3-12.7-46.2-13.5-13.7-27.4-27.5-40.8-40.8-4.5-4.5-9.1-9-13.6-13.5l-21.3-21.2c44.3-40.1 80.2-87.7 106.8-141.5 29-58.5 45.4-121.3 48.8-186.5 3.4-65.2-6.4-129.3-29.1-190.6-22.7-61.1-57.1-116-102.2-163.3z m36.5 329.4c-0.2 102.3-40.2 198.3-112.6 270-72.4 71.8-169 111.3-272 111.3h-0.2c-51.4 0-101.3-10.2-148.3-30.1-45.4-19.3-86.3-46.9-121.4-82-35.1-35.1-62.7-76-82-121.4-20-47-30.1-96.9-30.1-148.3 0-51.5 10.1-101.4 30.1-148.5 19.3-45.4 46.9-86.3 82.1-121.3C276 207.5 317 180 362.6 160.7c47.3-19.9 97.5-30.1 149.2-30.1h0.4c51.6 0 101.8 10.1 149 30.1 45.7 19.3 86.8 47 122 82.3 35.1 35.1 62.7 76 81.9 121.5 20.1 46.9 30.1 96.9 30.1 148.4zM1023.9 211c-1.8-41.1-11.4-74.2-30.1-104.3C952.1 39.8 890.9 4.8 811.9 2.5c-20.7-0.9-39.8 12.1-46.6 31.7-5.1 14.4-3.1 29.8 5.3 42.1 8.9 12.9 23.4 20.6 39.8 21.1 44.1 1.5 77 19.9 100.4 56.4 11.4 17.8 17.1 37.7 17.5 60.9-0.2 20.8 13.4 39.7 33.3 46 4.7 1.5 9.5 2.2 14.2 2.2 15.5 0 30.6-7.6 39.6-20.8 6.3-9.1 9.3-20.1 8.5-31.1z" p-id="2894"></path></svg>
