<svg t="1652598015931" class="icon" viewBox="0 0 1024 1024" version="1.1" xmlns="http://www.w3.org/2000/svg" p-id="4122" width="200" height="200"><path d="M788.864 513.728a19.84 19.84 0 0 1 19.968 19.84v39.04a162.546 162.546 0 0 1 24.32 13.888l34.112-19.52a20.096 20.096 0 0 1 27.328 7.296l44.992 77.248a19.712 19.712 0 0 1-7.296 27.072l-34.112 19.584a147.648 147.648 0 0 1 0 27.84l34.112 19.584a19.84 19.84 0 0 1 7.296 27.072l-44.992 77.248a20.096 20.096 0 0 1-27.328 7.296l-34.112-19.52a154.624 154.624 0 0 1-24.32 13.824v39.104a19.84 19.84 0 0 1-19.968 19.84h-90.048a19.84 19.84 0 0 1-19.968-19.84v-39.04a156.608 156.608 0 0 1-24.32-13.888l-34.112 19.52a20.096 20.096 0 0 1-27.264-7.296l-45.056-77.248a19.776 19.776 0 0 1 7.36-27.072l34.048-19.584a292.224 292.224 0 0 1 0-27.84l-34.048-19.584a19.776 19.776 0 0 1-7.36-27.072l44.992-77.248a20.096 20.096 0 0 1 27.328-7.296l34.112 19.52a156.808 156.808 0 0 1 24.32-13.824v-39.104c0-11.008 8.96-19.84 19.968-19.84h90.048zM468.288 158.912c172.8 0 319.232 125.312 347.264 293.952a32 32 0 1 1-63.168 10.496 288.064 288.064 0 0 0-572.096 47.552A288 288 0 0 0 498.56 797.44a32 32 0 1 1 6.656 63.616 350.528 350.528 0 0 1-260.8-78.464l-79.616 80.32a32 32 0 0 1-49.152-40.64l3.712-4.48 79.552-80.256a352 352 0 0 1 269.44-578.56z m298.88 411.392h-45.504V600c0 7.68-5.248 13.44-12.16 17.024-11.52 6.016-21.12 11.776-33.024 18.88-6.592 3.968-14.272 5.76-20.992 1.92l-25.856-14.784-22.784 39.04 25.92 14.912c6.656 3.84 8.768 12.608 8.768 18.88v37.952c0 6.272-2.112 15.104-8.768 18.944l-25.92 14.848 22.784 39.04 25.856-14.784c6.72-3.84 14.272-1.792 20.992 1.92 8.704 4.864 24 14.592 33.024 18.88 7.04 3.328 12.16 9.408 12.16 17.088v29.696h45.504V829.76c0-7.68 5.312-13.44 12.16-17.024 11.2-6.016 21.248-11.456 33.024-18.944 6.528-4.096 14.272-5.76 20.992-1.92L859.2 806.72l22.784-39.104-25.856-14.848c-6.592-3.84-8.768-9.984-8.832-16.256v-40.576c0-6.272 2.176-15.168 8.832-18.944l25.92-14.848-22.784-39.104-25.856 14.848c-6.656 3.84-14.528 2.112-20.992-1.92a418.688 418.688 0 0 0-33.024-18.944c-6.912-3.52-12.16-9.344-12.16-17.024v-29.76z m-22.272 73.856a70.4 70.4 0 1 1 0 140.8 70.4 70.4 0 0 1 0-140.8z m-0.512 39.296a32 32 0 1 0 0 64.064 32 32 0 0 0 0-64zM469.76 304.32a32 32 0 0 1 31.552 26.24l0.512 5.76v161.344l57.792 37.632a32 32 0 0 1 12.096 39.168l-2.752 5.12a32 32 0 0 1-39.168 12.096l-5.12-2.752-72.32-47.04a32 32 0 0 1-14.08-21.504l-0.448-5.312V336.32a32 32 0 0 1 32-32zM211.776 135.68a32 32 0 0 1-0.64 45.248l-77.952 75.712a32 32 0 1 1-44.672-45.888l77.952-75.712a32 32 0 0 1 45.248 0.64z m514.688 0a32 32 0 0 1 45.248-0.64l77.952 75.776a32 32 0 0 1-44.608 45.888l-78.016-75.776a32 32 0 0 1-0.64-45.248z" p-id="4123"></path></svg>
