<svg t="1710929167405" class="icon" viewBox="0 0 1075 1024" version="1.1" xmlns="http://www.w3.org/2000/svg" p-id="21783" width="200" height="200"><path d="M537.657412 1023.752004h0.247996a500.40619 500.40619 0 0 1-340.12642-132.479426 112.391756 112.391756 0 0 0-36.827396 69.984451h-49.599186a140.489695 140.489695 0 0 1 52.079145-104.753481A503.208544 503.208544 0 0 1 47.121459 413.756412 260.941319 260.941319 0 0 1 0.002233 263.148483a263.619675 263.619675 0 0 1 400.513429-224.808312 505.539706 505.539706 0 0 1 275.275483 0.247996 263.619675 263.619675 0 0 1 352.675014 376.160229 503.828534 503.828534 0 0 1-116.334891 441.755152 143.044053 143.044053 0 0 1 51.83115 104.753481h-49.599187a112.689351 112.689351 0 0 0-36.455402-70.05885 501.770168 501.770168 0 0 1-339.754426 132.553825zM85.064837 521.560243a452.840571 452.840571 0 1 0 897.472476-86.277784l-4.959919-20.11247A453.832554 453.832554 0 0 0 671.575215 89.824126l-30.181105-9.225448a454.006151 454.006151 0 0 0-103.488702-11.879005v0.247995A452.493376 452.493376 0 0 0 98.407018 412.342835l-0.446393 1.81037a457.974086 457.974086 0 0 0-12.895788 107.407038z m923.884042-173.845148A214.268485 214.268485 0 0 0 740.195689 61.998983a503.853334 503.853334 0 0 1 268.75319 285.740912zM85.362432 145.276017a214.243685 214.243685 0 0 0-18.649294 201.447095q1.165581-3.099949 2.479959-6.1503A503.828534 503.828534 0 0 1 335.36713 61.775786 212.433315 212.433315 0 0 0 85.362432 145.276017zM613.296171 735.332736l-99.198373-203.356664a24.799593 24.799593 0 0 1-1.23998-20.038071V190.956867a24.799593 24.799593 0 1 1 49.599187 0v327.032235l95.478433 195.767988a24.799593 24.799593 0 0 1-22.319634 35.463418v0.247996a24.799593 24.799593 0 0 1-22.319633-14.135768z" p-id="21784"></path></svg>
