<svg t="1645361929840" class="icon" viewBox="0 0 1030 1024" version="1.1" xmlns="http://www.w3.org/2000/svg" p-id="11010" width="200" height="200"><path d="M910.39204 806.973134c-5.094527-1.528358-14.774129-3.566169-23.944279-6.622885-43.303483-15.283582-89.154229 16.81194-88.135323 62.662686 0 8.151244 2.037811 16.81194 5.094527 24.453732 12.736318 34.133333 1.018905 66.738308-30.567164 84.569154-36.680597 20.378109-75.399005 36.680597-115.645771 47.888557-34.133333 9.679602-66.228856-5.60398-81.002985-38.718408-16.302488-36.680597-59.096517-51.454726-93.229851-31.58607-12.736318 7.641791-22.925373 19.359204-28.529353 33.114428-11.717413 27.510448-38.208955 43.812935-66.738309 39.737314-13.755224-1.528358-27.510448-6.622886-41.265671-11.20796-30.567164-10.189055-59.60597-22.925373-87.625871-38.718408-32.095522-18.340299-43.812935-50.435821-30.567164-85.078607 10.189055-27.000995 5.60398-51.454726-14.774129-71.323383-19.868657-19.868657-44.322388-23.944279-70.304478-14.264677-35.152239 13.245771-67.247761 1.528358-85.58806-31.076617-20.378109-36.171144-36.171144-74.889552-47.379104-114.626866-10.698507-32.604975 6.113433-67.757214 37.699502-81.002985 20.887562-9.170149 34.642786-23.944279 39.227861-46.360199 7.641791-31.076617-8.660697-63.172139-38.208955-75.399005-19.868657-8.660697-33.623881-22.925373-39.737314-43.812935-3.056716-11.20796-3.056716-23.434826 0-34.642786 11.20796-41.265672 27.510448-80.493532 48.39801-117.683582 17.830846-32.095522 50.435821-43.812935 85.078607-30.567164 40.246766 15.283582 82.531343-7.641791 89.663682-49.926368 2.037811-11.717413 0.509453-23.944279-4.075622-35.152239-13.245771-34.642786-1.528358-67.247761 30.567164-85.078607C295.482587 35.661692 334.710448 19.868657 375.466667 8.660697c32.095522-9.170149 66.228856 7.132338 78.965174 38.208955 9.679602 22.41592 26.491542 36.680597 50.435821 40.246766 31.076617 5.094527 58.077612-10.189055 70.81393-39.227861 9.170149-21.397015 24.453731-35.661692 47.379105-39.737313 10.189055-2.037811 21.906468-1.528358 32.095522 1.018905 40.756219 10.698507 80.493532 27.000995 117.174129 47.888557 31.58607 17.830846 43.303483 50.435821 30.567164 84.059702-16.302488 42.79403 9.679602 86.097512 55.020896 90.682587 9.679602 1.018905 19.868657-1.018905 29.038806-4.075622 36.680597-13.245771 68.266667-2.037811 87.116418 32.095523 19.868657 35.152239 35.152239 72.342289 46.360199 111.570149 10.189055 36.171144-4.075622 67.757214-38.718408 83.040796-41.775124 18.849751-53.492537 70.81393-22.925373 104.437811 6.622886 7.132338 15.283582 12.736318 23.434826 16.81194 33.623881 15.793035 47.888557 46.869652 38.208955 82.531343-11.20796 40.756219-27.510448 79.474627-48.907463 116.155224-11.717413 20.887562-31.58607 31.58607-61.134328 32.604975z m48.39801-415.20398c-9.679602-35.661692-23.944279-69.285572-41.775125-101.890547-2.037811-4.075622-4.585075-2.037811-7.132338-1.018906-24.453731 8.660697-49.926368 10.698507-75.399005 4.585075-36.680597-8.660697-67.757214-32.095522-85.58806-65.20995-17.830846-33.114428-20.887562-72.342289-7.641791-107.494527 2.037811-5.094527 1.018905-7.641791-4.075622-9.679602-19.868657-8.660697-38.718408-18.340299-58.587064-27.000996-13.245771-5.60398-27.000995-9.170149-39.737314-13.755223-25.472637 51.964179-65.20995 82.021891-122.268656 82.02189-57.568159 0-97.305473-30.057711-122.268657-81.512438-36.680597 10.189055-71.323383 24.453731-104.437811 43.303483 18.849751 54.00199 11.717413 103.418905-29.038806 144.175124s-90.173134 47.888557-144.175124 28.529354c-18.849751 33.114428-33.114428 67.757214-43.303483 104.43781 51.454726 24.963184 81.002985 64.191045 81.512438 121.249752 0.509453 58.077612-29.548259 98.324378-81.512438 123.287562 10.189055 36.680597 24.453731 71.323383 43.303483 104.437811 51.964179-18.340299 100.362189-12.736318 140.608955 25.472637 43.812935 40.756219 51.454726 91.19204 32.604975 147.23184 33.114428 18.849751 67.757214 33.623881 104.437811 43.303483 24.963184-51.964179 64.700498-81.512438 122.268657-81.512438 58.077612 0 97.305473 30.057711 122.268656 81.512438 36.680597-10.189055 71.323383-24.453731 104.437811-43.303483-18.849751-54.00199-11.717413-103.418905 28.529354-144.175124 40.756219-40.756219 90.173134-47.888557 144.175124-29.038806 18.849751-32.604975 33.114428-67.757214 43.303482-104.437811-51.964179-25.472637-82.021891-65.719403-81.512437-123.797015 0-55.530348 29.548259-94.758209 81.002985-119.721393z m0 0" p-id="11011"></path><path d="M515.566169 283.765174c29.038806 0.509453 56.549254 6.113433 83.550249 16.302488 17.830846 7.132338 26.491542 25.472637 19.868657 42.284577-6.622886 17.321393-24.963184 25.98209-43.812936 18.849751-40.246766-15.793035-85.58806-15.283582-125.325373 2.037811-39.737313 17.321393-71.323383 49.926368-87.116418 90.173134-39.227861 98.833831 25.98209 209.385075 130.929353 223.140299 44.322388 5.60398 89.154229-6.622886 123.797015-34.642786 35.152239-28.0199 57.058706-68.776119 61.134329-113.098508 2.037811-25.472637-1.528358-51.454726-11.20796-75.399005-3.566169-8.151244-3.566169-16.81194-0.509453-24.963184 3.056716-8.151244 9.679602-14.264677 17.321393-17.830846 8.151244-3.566169 17.321393-3.566169 25.982089 0 8.151244 3.566169 14.774129 10.189055 17.830846 18.849752 14.774129 36.171144 20.378109 73.361194 14.77413 112.079602-13.755224 94.248756-65.719403 158.949254-155.383085 190.535323-133.98607 46.869652-278.670647-43.303483-299.558209-183.402985C270.00995 421.826866 357.126368 304.652736 482.451741 286.821891c11.20796-2.037811 22.41592-2.037811 33.114428-3.056717z m0 0" p-id="11012"></path></svg>
