<svg t="1699498562105" class="icon" viewBox="0 0 1122 1024" version="1.1" xmlns="http://www.w3.org/2000/svg" p-id="7448" width="200" height="200"><path d="M767.188646 519.013047a139.382543 139.382543 0 1 0 139.37085 139.382543 139.557941 139.557941 0 0 0-139.37085-139.382543z m0 210.219745a70.837202 70.837202 0 1 1 70.813816-70.837202 70.919054 70.919054 0 0 1-70.813816 70.883975zM872.953336 996.386564h-0.023386 0.023386z" p-id="7449"></path><path d="M1115.095426 590.154271c-3.870438-20.381189-16.078104-33.442456-30.963505-33.115047h-3.098689a92.820355 92.820355 0 0 1-92.69173-92.715116c0-16.83816 8.009819-35.278283 8.056592-35.418601a41.908308 41.908308 0 0 0-14.101959-50.689877l-0.900374-0.619738-89.125314-49.543945-0.912067-0.385875a43.042545 43.042545 0 0 0-17.259114-3.449484c-12.687086 0-25.128615 5.039755-33.302137 13.528993-10.874645 11.213747-45.217474 40.376504-72.8952 40.376504-27.923281 0-62.453202-29.735722-73.374619-41.159946-8.185216-8.676329-20.743677-13.809629-33.582773-13.809629a42.376035 42.376035 0 0 0-16.884933 3.344245l-0.958839 0.385875-92.294163 50.713262-0.900373 0.619738a41.838149 41.838149 0 0 0-14.218891 50.619718c0.070159 0.210477 8.079978 18.6506 8.079978 35.48876a92.820355 92.820355 0 0 1-92.715116 92.738502h-3.075303c-14.932173-0.350795-27.06968 12.733858-30.963504 33.091661-0.315715 1.66043-7.448547 39.756766-7.448547 69.925135s7.156218 68.241319 7.471933 69.843283c3.800279 20.100553 15.739002 33.115047 30.402233 33.115047h3.671654A92.808662 92.808662 0 0 1 543.732237 855.776238c0 16.884932-8.009819 35.325056-8.056592 35.465374a41.955081 41.955081 0 0 0 14.0318 50.689876l0.876987 0.643125 87.523351 48.842355 0.92376 0.385875a42.095399 42.095399 0 0 0 17.153875 3.50795c12.862483 0 25.374171-5.261925 33.489228-14.113652 10.254907-11.120201 45.954144-42.972386 74.52055-42.972386 28.788576 0 63.914847 31.653401 75.023355 43.814294 8.185216 8.968659 20.731984 14.324129 33.723092 14.347515a42.095399 42.095399 0 0 0 16.826466-3.379325l0.912067-0.385874 90.692199-50.093525 0.876987-0.643124a41.908308 41.908308 0 0 0 14.172118-50.66649c-0.070159-0.163704-8.079978-18.6506-8.079978-35.48876a92.832048 92.832048 0 0 1 92.69173-92.715116h3.098689c14.885401 0.350795 27.093067-12.733858 30.916732-33.068275 0.339102-1.613657 7.49532-39.838618 7.49532-69.913442s-7.156218-68.264705-7.448547-69.878362z m-101.227742 118.83765a107.401733 107.401733 0 0 0-101.625309 107.179563c0 19.118327 7.448547 37.418132 9.050511 41.265184l-67.422797 37.254428h-0.116932a4.373244 4.373244 0 0 1-2.186622-0.549579 191.978406 191.978406 0 0 0-25.046763-22.217016c-20.97754-15.598684-40.926082-23.503264-59.377898-23.503264-18.24134 0-38.049563 7.764262-58.886786 23.035538a190.142579 190.142579 0 0 0-24.929831 21.854528 4.677267 4.677267 0 0 1-2.186622 0.549578h-0.140318l-65.060778-36.365747c1.613657-3.695041 9.132363-22.123471 9.132363-41.300264a107.413426 107.413426 0 0 0-101.660388-107.156176c-0.830215-4.478483-5.215152-29.759108-5.215153-48.737118s4.384937-44.246942 5.191766-48.713731a107.39004 107.39004 0 0 0 101.660389-107.121097c0-19.118327-7.425161-37.418132-9.038818-41.265184l68.697353-37.733848h0.233863a5.472402 5.472402 0 0 1 2.572497 0.66651 183.126679 183.126679 0 0 0 24.672581 21.0477c20.56828 14.651537 40.072481 22.076698 57.916253 22.076698s37.032258-7.284843 57.495299-21.667438a185.149596 185.149596 0 0 0 24.555649-20.579972 5.028062 5.028062 0 0 1 2.54911-0.689897h0.280636l66.32364 36.845167c-1.578577 3.776893-9.050511 22.123471-9.050511 41.335343a107.39004 107.39004 0 0 0 101.625309 107.121097c0.806828 4.490176 5.250232 29.747415 5.250232 48.713732s-4.455096 44.200169-5.261925 48.655265z" p-id="7450"></path><path d="M96.831111 846.035831A96.948042 96.948042 0 0 1 0 749.099482V96.948206A97.053281 97.053281 0 0 1 97.053281 0.000164h913.002431a96.293225 96.293225 0 0 1 68.346557 28.285769 97.626246 97.626246 0 0 1 28.496247 68.662273V336.061765a53.461157 53.461157 0 1 1-106.91062 0v-229.186061H106.91062v632.249507H357.810891a53.461157 53.461157 0 1 1 0 106.91062H96.831111z m0.116931-106.91062zM1009.915394 106.910784zM461.236948 1023.99413h-183.582712a53.461157 53.461157 0 1 1 0-106.91062h183.582712a53.461157 53.461157 0 1 1 0 106.91062z" p-id="7451"></path></svg>
