<svg t="1645362253602" class="icon" viewBox="0 0 1025 1024" version="1.1" xmlns="http://www.w3.org/2000/svg" p-id="1041" width="200" height="200"><path d="M406.766493 519.191123C402.472299 519.191123 398.112041 518.365316 393.916945 516.581574 294.159525 474.432413 229.71359 377.185445 229.71359 268.872671 229.71359 120.623897 350.347396-0.00991 498.59617-0.00991 646.844945-0.00991 767.445719 120.623897 767.445719 268.872671 767.445719 373.849187 705.741461 469.873961 610.245203 513.509574 593.629977 521.073961 574.041848 513.806865 566.444428 497.224671 558.880041 480.609445 566.18017 461.021316 582.795396 453.456929 654.838751 420.523768 701.381203 348.050994 701.381203 268.872671 701.381203 157.025445 610.410364 66.054606 498.59617 66.054606 386.781977 66.054606 295.778106 157.025445 295.778106 268.872671 295.778106 350.594477 344.40159 423.92609 419.649074 455.736155 436.429461 462.83809 444.32417 482.228026 437.189203 499.041445 431.871009 511.626735 419.649074 519.191123 406.766493 519.191123" p-id="1042"></path><path d="M673.71999 996.54689 673.686957 996.54689 103.087732 996.018374C67.148635 995.95231 34.413667 978.147923 15.519215 948.385858-2.714591 919.680826-4.960785 884.171148 9.44128 853.385084 59.485151 746.525729 190.623215 566.532955 506.708893 561.644181 831.614183 555.698374 949.803603 748.474632 991.325151 863.327794 1002.225796 893.486245 997.832506 925.989987 979.202312 952.547923 959.878441 980.096826 927.936248 996.54689 893.780893 996.54689L811.365409 996.54689C793.131603 996.54689 778.333151 981.781471 778.333151 963.514632 778.333151 945.247794 793.131603 930.482374 811.365409 930.482374L893.780893 930.482374C906.432248 930.482374 918.125667 924.536568 925.128506 914.62689 928.69599 909.50689 933.981151 899.002632 929.191474 885.756697 885.787086 765.750503 776.351215 623.282374 507.765925 627.708697 241.59199 631.837729 122.411603 767.930632 69.295732 881.396439 64.406957 891.768568 65.166699 903.296826 71.310699 912.975277 78.04928 923.578632 89.973925 929.920826 103.186828 929.953858L673.753022 930.482374C691.986828 930.515406 706.752248 945.280826 706.752248 963.547665 706.752248 981.781471 691.953796 996.54689 673.71999 996.54689" p-id="1043"></path></svg>
