<svg t="1645361700400" class="icon" viewBox="0 0 1024 1024" version="1.1" xmlns="http://www.w3.org/2000/svg" p-id="8432" width="200" height="200"><path d="M426.624 528.661333L98.922667 345.301333c-6.912-4.757333-13.845333-4.757333-20.778667-4.757333C52.757333 340.544 32 364.352 32 390.549333V745.386667c0 35.712 18.453333 69.056 48.469333 88.106666l325.376 183.36c6.933333 4.757333 13.866667 4.757333 20.778667 4.757334 25.386667-2.368 46.144-23.808 46.144-52.373334V612.010667c2.304-33.322667-16.149333-66.666667-46.144-83.349334zM101.738667 768.874667c-7.04-5.205333-9.386667-12.970667-9.386667-23.317334V408.981333l308.394667 176.384c7.061333 5.184 9.408 12.949333 9.408 23.317334v341.205333L101.76 768.853333z m841.813333-425.962667c-6.933333 0-13.866667 2.389333-20.778667 4.778667l-325.397333 183.36a104.64 104.64 0 0 0-48.448 88.106666v354.837334c0 26.197333 18.453333 50.005333 46.144 50.005333 6.933333 0 13.866667-2.389333 20.778667-4.757333L941.226667 835.84c29.994667-16.661333 50.773333-50.005333 50.773333-88.106667V392.96c-2.304-28.586667-20.778667-50.026667-48.469333-50.026667z m-12.032 412.458667c0 7.765333-2.517333 18.133333-10.069333 23.317333L613.333333 951.168V612.288c0-7.765333 2.517333-18.133333 10.069334-23.296l308.117333-172.906667v339.285334z m-17.984-526.762667c2.304-16.661333-6.912-30.933333-20.757333-35.712L560.469333 11.904C544.298667 4.757333 528.149333 0 512 0c-16.149333 2.389333-34.624 4.757333-50.773333 11.904L128.917333 190.506667c-13.845333 7.146667-23.061333 21.44-23.061333 35.733333 0 16.661333 6.912 30.933333 20.757333 35.712l332.309334 178.602667c16.149333 7.146667 32.298667 11.904 50.773333 11.904 16.149333-2.368 34.602667-4.757333 50.773333-11.904l332.309334-176.213334c13.845333-7.146667 23.061333-21.44 20.757333-35.733333z m-421.248 156.16L175.530667 224.426667l313.024-161.706667c13.12-5.44 26.24-5.44 36.736 0l319.765333 166.592-316.032 155.456c-5.248 2.709333-10.496 5.44-18.368 5.44-5.248 0-13.12-2.730667-18.368-5.44z" fill="#000000" p-id="8433"></path></svg>
