<?xml version="1.0" standalone="no"?><!DOCTYPE svg PUBLIC "-//W3C//DTD SVG 1.1//EN" "http://www.w3.org/Graphics/SVG/1.1/DTD/svg11.dtd"><svg t="1630992302515" class="icon" viewBox="0 0 1024 1024" version="1.1" xmlns="http://www.w3.org/2000/svg" p-id="1165" width="128" height="128" xmlns:xlink="http://www.w3.org/1999/xlink"><defs><style type="text/css"></style></defs><path d="M290.306439 218.184864c0-2.815969-1.087988-90.495005 20.671773-117.438708 22.015758-27.519697 85.055064-63.039307 85.055064-63.039307s71.935209-44.735508 85.183063-36.671597C494.656191 8.971165 492.352216 95.626212 492.352216 95.626212s-0.639993 85.631058-14.52784 110.334786C464.000528 230.600727 392.00132 273.672253 392.00132 273.672253s-63.039307 41.151547-84.671069 40.319556C286.082485 313.223818 290.242439 221.192831 290.306439 218.184864zM334.145956 656.388043c0.511994 15.551829 77.055152 56.127383 77.055152 56.127383s75.263172 41.343545 103.358863 41.343545c28.351688 0 101.054888-41.599542 101.054888-41.599542s66.815265-34.815617 76.735156-54.015406c9.727893-18.943792-72.639201-60.415335-75.263172-61.887319C614.654871 594.948719 538.687706 551.173201 504.640081 556.805139 469.760465 562.693074 407.937145 600.132662 407.937145 600.132662S333.633962 640.900214 334.145956 656.388043zM302.722302 590.980763c21.631762 0.831991 84.607069-40.319556 84.607069-40.319556s71.935209-43.071526 85.823056-67.711255C487.040275 458.374222 487.744267 372.679164 487.744267 372.679164S489.856244 286.088117 476.608389 278.024205C463.296536 269.960294 391.361327 314.631803 391.361327 314.631803S328.450019 350.34341 306.306263 377.671109C284.610501 404.678812 285.63449 492.293848 285.63449 495.237816 285.506491 498.117784 281.474536 590.212771 302.722302 590.980763zM787.964964 353.415376c13.951847 24.639729 85.951055 67.711255 85.951055 67.711255s62.975307 41.215547 84.607069 40.319556c21.183767-0.831991 17.151811-92.798979 17.087812-95.742947 0-2.879968 1.215987-90.431005-20.607773-117.566707-22.143756-27.391699-85.119064-63.039307-85.119064-63.039307s-71.935209-44.735508-85.183063-36.607597c-13.375853 7.999912-11.199877 94.590959-11.199877 94.590959S774.269115 328.903646 787.964964 353.415376zM717.821736 377.671109c-22.207756-27.391699-85.119064-63.103306-85.119064-63.103306S560.767464 269.960294 547.45561 278.024205C534.207756 286.088117 536.255733 372.679164 536.255733 372.679164s0.831991 85.631058 14.655839 110.270787c13.887847 24.639729 85.759057 67.711255 85.759057 67.711255s63.103306 41.151547 84.671069 40.319556c21.247766-0.831991 17.151811-92.926978 17.023813-95.806946C738.36551 492.293848 739.517497 404.678812 717.821736 377.671109zM546.303623 205.960998c13.759849 24.639729 85.759057 67.711255 85.759057 67.711255s63.039307 41.151547 84.671069 40.319556c21.183767-0.767992 17.151811-92.798979 17.087812-95.806946 0-2.815969 1.023989-90.495005-20.671773-117.438708-22.079757-27.519697-85.119064-63.039307-85.119064-63.039307S556.031516-7.092658 542.783661 0.971253C529.407809 8.971165 531.647784 95.626212 531.647784 95.626212S532.351776 181.25727 546.303623 205.960998zM231.299088 630.532328c13.823848-24.703728 14.591839-110.334786 14.591839-110.334786s2.175976-86.591047-11.071878-94.718958C221.379197 417.478671 149.443988 462.15018 149.443988 462.15018S86.596679 497.733789 64.452923 525.189487c-21.759761 27.071702-20.735772 114.622739-20.735772 117.502707C43.653152 645.636162 39.685195 737.667149 60.804963 738.56314c21.695761 0.703992 84.671069-40.383556 84.671069-40.383556S217.47524 654.980059 231.299088 630.532328zM860.924162 727.939256c-2.431973-1.343985-78.335138-45.247502-112.510762-39.423566-34.751618 5.695937-96.638937 43.263524-96.638937 43.263524s-74.303183 40.703552-73.855188 56.255381c0.639993 15.48783 77.119152 56.127383 77.119152 56.127383s75.263172 41.343545 103.294864 41.343545c28.351688 0 101.118888-41.727541 101.118888-41.727541s66.815265-34.815617 76.671157-54.015406C945.979226 770.882784 863.676132 729.283242 860.924162 727.939256zM65.476912 461.446188c21.631762 0.831991 84.671069-40.319556 84.671069-40.319556S222.083189 378.119104 235.971036 353.415376c13.823848-24.57573 14.655839-110.398786 14.655839-110.398786S252.738852 156.553542 239.554997 148.48963C226.115145 140.425719 154.179936 185.161227 154.179936 185.161227S91.204629 220.744836 69.124872 248.136534C47.365111 275.272236 48.453099 362.823273 48.453099 365.703241 48.3251 368.647209 44.293145 460.678196 65.476912 461.446188zM980.282849 642.692194c0.063999-2.879968 1.087988-90.431005-20.671773-117.502707-22.079757-27.455698-85.119064-63.039307-85.119064-63.039307s-71.80721-44.671509-85.183063-36.671597c-13.247854 8.127911-11.199877 94.718958-11.199877 94.718958s0.831991 85.631058 14.655839 110.334786c13.823848 24.51173 85.759057 67.711255 85.759057 67.711255s63.039307 41.087548 84.735068 40.383556C984.506802 737.667149 980.346848 645.636162 980.282849 642.692194zM445.312734 796.6745c9.663894-18.879792-72.639201-60.351336-75.327171-61.82332-2.431973-1.343985-78.335138-45.183503-112.510762-39.487566-34.687618 5.823936-96.638937 43.263524-96.638937 43.263524s-74.239183 40.831551-73.727189 56.38338 77.055152 56.063383 77.055152 56.063383 75.135174 41.343545 103.422862 41.343545 101.054888-41.599542 101.054888-41.599542S435.328843 815.938288 445.312734 796.6745zM613.886879 866.433733c-2.431973-1.343985-78.271139-45.183503-112.446763-39.423566-34.815617 5.823936-96.766936 43.199525-96.766936 43.199525s-74.175184 40.89555-73.66319 56.447379c0.511994 15.551829 77.055152 56.063383 77.055152 56.063383S483.136318 1024 511.360007 1024s101.054888-41.599542 101.054888-41.599542 66.815265-34.815617 76.671157-54.015406C698.813945 909.44126 616.51085 867.841717 613.886879 866.433733z" p-id="1166" fill="#20a0ff"></path></svg>