<svg t="1685955543505" class="icon" viewBox="0 0 1098 1024" version="1.1" xmlns="http://www.w3.org/2000/svg" p-id="5589" width="200" height="200"><path d="M512 512q0-60.571-42.857-103.429t-103.429-42.857-103.428 42.857T219.429 512t42.857 103.429 103.428 42.857 103.429-42.857T512 512z m438.857 292.571q0-29.714-21.714-51.428t-51.429-21.714-51.428 21.714-21.715 51.428q0 30.286 21.429 51.715t51.714 21.428 51.715-21.428 21.428-51.715z m0-585.142q0-29.715-21.714-51.429t-51.429-21.714T826.286 168t-21.715 51.429q0 30.285 21.429 51.714t51.714 21.428 51.715-21.428 21.428-51.714zM731.43 460v105.714q0 5.715-4 11.143t-9.143 6l-88.572 13.714q-6.285 20-18.285 43.429 19.428 27.429 51.428 65.714 4 5.715 4 11.429 0 6.857-4 10.857-13.143 17.143-47.143 51.143t-44.857 34q-6.286 0-12-4l-65.714-51.429q-21.143 10.857-44 17.715Q442.857 837.143 436 864q-4 13.714-17.143 13.714H312.571q-6.285 0-11.428-4.285t-5.714-10L282.286 776q-19.429-5.714-42.857-17.714L172 809.143q-4 4-11.429 4-6.285 0-12-4.572-82.285-76-82.285-91.428 0-5.143 4-10.857 5.714-8 23.428-30.286t26.857-34.857q-13.142-25.143-20-46.857L13.714 580.57Q8 580 4 575.143T0 564V458.286q0-5.715 4-11.143t9.143-6l88.571-13.714Q108 407.429 120 384q-19.429-27.429-51.429-65.714-4-6.286-4-11.429 0-6.857 4-11.428 12.572-17.143 46.858-50.858t45.142-33.714q6.286 0 12 4l65.715 51.429q19.428-10.286 44-18.286 6.285-61.714 13.143-88 4-13.714 17.142-13.714h106.286q6.286 0 11.429 4.285t5.714 10L449.143 248q19.428 5.714 42.857 17.714l67.429-50.857q4.571-4 11.428-4 6.286 0 12 4.572 82.286 76 82.286 91.428 0 5.143-4 10.857-6.857 9.143-24 30.857t-25.714 34.286q13.142 27.429 19.428 46.857l86.857 13.143q5.715 1.143 9.715 6t4 11.143z m365.714 304.571v80q0 9.143-85.143 17.715-6.857 15.428-17.143 29.714Q1024 956.571 1024 970.857q0 2.286-2.286 4-69.714 40.572-70.857 40.572-4.571 0-26.286-26.858t-29.714-38.857q-11.428 1.143-17.143 1.143t-17.143-1.143q-8 12-29.714 38.857t-26.286 26.858q-1.142 0-70.857-40.572-2.285-1.714-2.285-4 0-14.286 29.142-78.857-10.285-14.286-17.142-29.714-85.143-8.572-85.143-17.715v-80q0-9.142 85.143-17.714 7.428-16.571 17.142-29.714-29.142-64.572-29.142-78.857 0-2.286 2.285-4 2.286-1.143 20-11.429t33.715-19.428 17.142-9.143q4.572 0 26.286 26.571t29.714 38.572q11.429-1.143 17.143-1.143t17.143 1.143q29.143-40.572 52.572-64l3.428-1.143q2.286 0 70.857 40 2.286 1.714 2.286 4 0 14.285-29.143 78.857 9.714 13.143 17.143 29.714 85.143 8.572 85.143 17.714z m0-585.142v80q0 9.142-85.143 17.714-6.857 15.428-17.143 29.714Q1024 371.43 1024 385.714q0 2.286-2.286 4-69.714 40.572-70.857 40.572-4.571 0-26.286-26.857t-29.714-38.858q-11.428 1.143-17.143 1.143t-17.143-1.143q-8 12-29.714 38.858t-26.286 26.857q-1.142 0-70.857-40.572-2.285-1.714-2.285-4 0-14.285 29.142-78.857-10.285-14.286-17.142-29.714-85.143-8.572-85.143-17.714v-80q0-9.143 85.143-17.715 7.428-16.571 17.142-29.714-29.142-64.571-29.142-78.857 0-2.286 2.285-4 2.286-1.143 20-11.429t33.715-19.428 17.142-9.143q4.572 0 26.286 26.571t29.714 38.572q11.429-1.143 17.143-1.143t17.143 1.143q29.143-40.572 52.572-64l3.428-1.143q2.286 0 70.857 40 2.286 1.714 2.286 4 0 14.286-29.143 78.857 9.714 13.143 17.143 29.714 85.143 8.572 85.143 17.715z" p-id="5590"></path></svg>
