<svg t="1697446583144" class="icon" viewBox="0 0 1024 1024" version="1.1" xmlns="http://www.w3.org/2000/svg" p-id="1516" width="200" height="200"><path d="M164.693333 152.234667a42.666667 42.666667 0 0 1 42.368 37.674666l0.298667 4.992v85.290667h85.333333a42.666667 42.666667 0 0 1 42.368 37.717333l0.298667 4.992a42.666667 42.666667 0 0 1-37.674667 42.368l-4.992 0.298667h-128a42.666667 42.666667 0 0 1-42.368-37.717333l-0.298666-4.949334v-128a42.666667 42.666667 0 0 1 42.666666-42.666666z" p-id="1517"></path><path d="M512 85.333333c235.648 0 426.666667 191.018667 426.666667 426.666667s-191.018667 426.666667-426.666667 426.666667S85.333333 747.648 85.333333 512a42.666667 42.666667 0 0 1 85.333334 0 341.333333 341.333333 0 1 0 45.653333-170.666667A42.666667 42.666667 0 1 1 142.506667 298.581333 426.453333 426.453333 0 0 1 512 85.333333z m0.085333 168.874667a42.666667 42.666667 0 0 1 42.368 37.717333l0.298667 4.949334-0.042667 197.589333 139.52 139.52a42.666667 42.666667 0 0 1 3.541334 56.32l-3.541334 4.010667a42.666667 42.666667 0 0 1-56.32 3.584l-4.010666-3.584-152.021334-151.978667a42.666667 42.666667 0 0 1-12.117333-24.576l-0.341333-5.589333V296.874667a42.666667 42.666667 0 0 1 42.666666-42.666667z" p-id="1518"></path></svg>
