<svg t="1712800734585" class="icon" viewBox="0 0 1024 1024" version="1.1" xmlns="http://www.w3.org/2000/svg" p-id="10089" width="200" height="200"><path d="M979.841305 452.18504a44.158695 44.158695 0 0 1-44.158696-44.158695V88.317391H615.973655a44.158695 44.158695 0 0 1 0-88.317391h363.86765a44.158695 44.158695 0 0 1 44.158695 44.158695v363.86765a44.158695 44.158695 0 0 1-44.158695 44.158695z" p-id="10090"></path><path d="M901.881135 1023.678846H122.118865A122.279442 122.279442 0 0 1 0 901.881135V122.118865A122.279442 122.279442 0 0 1 122.118865 0h233.960796a44.158695 44.158695 0 1 1 0 88.317391H122.118865a33.881763 33.881763 0 0 0-33.801474 33.801474v779.76227a33.881763 33.881763 0 0 0 33.801474 33.801474h779.76227a33.881763 33.881763 0 0 0 33.801474-33.801474V654.351576a44.158695 44.158695 0 1 1 88.317391 0v247.609848a122.279442 122.279442 0 0 1-122.118865 121.717422z" p-id="10091"></path><path d="M558.808217 509.109613a44.158695 44.158695 0 0 1-31.232241-75.390937L925.2451 36.049553a44.158695 44.158695 0 0 1 62.464481 62.464482L590.040458 496.183158a43.998118 43.998118 0 0 1-31.232241 12.926455z" p-id="10092"></path></svg>
