<svg t="1697703763698" class="icon" viewBox="0 0 1061 1024" version="1.1" xmlns="http://www.w3.org/2000/svg" p-id="4893" width="200" height="200"><path d="M1027.081935 119.564071a43.10812 43.10812 0 0 0-52.034548 31.569078l-19.086592 78.523544A522.522663 522.522663 0 0 0 522.557275 0.109585a511.999637 511.999637 0 1 0 0 1023.781556 525.352994 525.352994 0 0 0 448.208329-251.681749 41.72924 41.72924 0 0 0-15.603108-58.058074 43.543555 43.543555 0 0 0-58.928944 15.38539 437.32244 437.32244 0 0 1-373.676277 209.879936 426.654269 426.654269 0 1 1 0-853.163393 438.628747 438.628747 0 0 1 371.063663 205.598154l-106.609138-24.747254a43.10812 43.10812 0 0 0-52.034548 31.569077 42.382394 42.382394 0 0 0 32.077086 51.163678l195.075127 45.212725a39.47949 39.47949 0 0 0 9.50701 0.870871 44.124136 44.124136 0 0 0 42.454966-32.947957l45.938451-191.954506a42.890402 42.890402 0 0 0-32.947957-51.163677z" p-id="4894"></path></svg>
