<svg t="1697704449125" class="icon" viewBox="0 0 1024 1024" version="1.1" xmlns="http://www.w3.org/2000/svg" p-id="6844" width="200" height="200"><path d="M290.886112 1014.536044L15.800468 740.081331a32.177449 32.177449 0 0 1 0-44.796057 32.177449 32.177449 0 0 1 44.796057 0l230.289587 230.289587 229.658657-230.289587a32.177449 32.177449 0 0 1 44.796057 0 31.546519 31.546519 0 0 1 0 44.796057z" fill="#409EFF" p-id="6845"></path><path d="M290.886112 969.109057a31.546519 31.546519 0 0 1-31.546519-31.546518V31.546519a31.546519 31.546519 0 0 1 31.546519-31.546519 31.546519 31.546519 0 0 1 31.546519 31.546519v906.01602a32.177449 32.177449 0 0 1-31.546519 31.546518zM798.154134 942.609982H628.433863a31.546519 31.546519 0 0 1-31.546519-31.546519 31.546519 31.546519 0 0 1 31.546519-31.546519h169.720271a31.546519 31.546519 0 0 1 31.546519 31.546519 31.546519 31.546519 0 0 1-31.546519 31.546519zM849.890425 708.534812H628.433863a31.546519 31.546519 0 0 1 0-63.093038h221.456562a31.546519 31.546519 0 0 1 0 63.093038zM914.876254 456.162662H628.433863a31.546519 31.546519 0 0 1 0-63.093038h286.442391a31.546519 31.546519 0 0 1 0 63.093038zM976.0765 235.33703H628.433863a31.546519 31.546519 0 0 1 0-63.093037h347.642637a31.546519 31.546519 0 0 1 0 63.093037z" fill="#409EFF" p-id="6846"></path></svg>
