<svg t="1712564351573" class="icon" viewBox="0 0 1024 1024" version="1.1" xmlns="http://www.w3.org/2000/svg" p-id="9965" width="200" height="200"><path d="M837.818 614.017c0 122.421-110.944 234.64-329.644 332.832C288.837 837.82 177.893 725.6 177.893 614.017V209.773A658.65 658.65 0 0 0 506.262 82.252a686.705 686.705 0 0 0 331.556 122.42zM874.162 144.1A627.407 627.407 0 0 1 529.215 16.578L512 0l-23.592 15.303a586.6 586.6 0 0 1-343.67 127.521h-33.156v471.193c0 144.1 127.521 274.81 382.565 399.781l13.39 6.376 14.027-5.738C776.608 903.492 904.13 768.319 904.13 614.017v-466.73z" p-id="9966"></path><path d="M335.382 475.656a31.88 31.88 0 0 0-45.908-3.188 35.706 35.706 0 0 0 0 47.82l120.509 144.1a63.76 63.76 0 0 0 48.458 22.317A63.76 63.76 0 0 0 512 662.475l200.21-255.043a35.068 35.068 0 0 0-8.927-46.545 31.243 31.243 0 0 0-45.27 5.1l-200.21 255.044z" p-id="9967"></path></svg>
